<svg xmlns="http://www.w3.org/2000/svg" xmlns:xlink="http://www.w3.org/1999/xlink" width="500" zoomAndPan="magnify" viewBox="0 0 375 374.999991" height="500" preserveAspectRatio="xMidYMid meet" version="1.0"><defs><clipPath id="e9c526b94c"><path d="M 99 232 L 127 232 L 127 338.578125 L 99 338.578125 Z M 99 232 " clip-rule="nonzero"/></clipPath><clipPath id="666f391dcd"><path d="M 20 232 L 48 232 L 48 338.578125 L 20 338.578125 Z M 20 232 " clip-rule="nonzero"/></clipPath><clipPath id="271b2c4050"><path d="M 248 232 L 276 232 L 276 338.578125 L 248 338.578125 Z M 248 232 " clip-rule="nonzero"/></clipPath><clipPath id="739f8101bf"><path d="M 327 232 L 355 232 L 355 338.578125 L 327 338.578125 Z M 327 232 " clip-rule="nonzero"/></clipPath><clipPath id="87c0155764"><path d="M 177 185 L 190 185 L 190 338.578125 L 177 338.578125 Z M 177 185 " clip-rule="nonzero"/></clipPath><clipPath id="f73fe08c86"><path d="M 177 36.328125 L 190 36.328125 L 190 72 L 177 72 Z M 177 36.328125 " clip-rule="nonzero"/></clipPath></defs><path fill="#f17a7e" d="M 124.324219 240.667969 L 21.710938 240.667969 C 18.921875 240.667969 16.574219 238.59375 16.230469 235.832031 L 0.441406 109.578125 C 0.0625 106.550781 2.210938 103.789062 5.238281 103.414062 C 8.265625 103.03125 11.027344 105.179688 11.40625 108.210938 L 26.589844 229.621094 L 124.324219 229.621094 C 127.375 229.621094 129.847656 232.09375 129.847656 235.144531 C 129.847656 238.199219 127.375 240.667969 124.324219 240.667969 Z M 124.324219 240.667969 " fill-opacity="1" fill-rule="nonzero"/><g clip-path="url(#e9c526b94c)"><path fill="#f17a7e" d="M 121.160156 338.515625 C 118.460938 338.511719 116.15625 336.5625 115.714844 333.898438 L 99.925781 239.210938 C 99.425781 236.199219 101.457031 233.355469 104.46875 232.851562 C 107.476562 232.347656 110.324219 234.382812 110.828125 237.390625 L 126.613281 332.082031 C 126.878906 333.683594 126.425781 335.320312 125.375 336.5625 C 124.324219 337.800781 122.78125 338.515625 121.160156 338.515625 Z M 121.160156 338.515625 " fill-opacity="1" fill-rule="nonzero"/></g><g clip-path="url(#666f391dcd)"><path fill="#f17a7e" d="M 26.453125 338.515625 C 24.828125 338.511719 23.289062 337.796875 22.238281 336.5625 C 21.1875 335.320312 20.734375 333.683594 21 332.085938 L 36.789062 237.398438 C 37.285156 234.382812 40.132812 232.355469 43.144531 232.851562 C 46.152344 233.355469 48.1875 236.199219 47.6875 239.210938 L 31.898438 333.898438 C 31.457031 336.5625 29.152344 338.515625 26.453125 338.515625 Z M 26.453125 338.515625 " fill-opacity="1" fill-rule="nonzero"/></g><path fill="#f17a7e" d="M 353.226562 240.667969 L 250.613281 240.667969 C 247.5625 240.667969 245.089844 238.199219 245.089844 235.144531 C 245.089844 232.09375 247.5625 229.621094 250.613281 229.621094 L 348.351562 229.621094 L 363.53125 108.210938 C 363.910156 105.179688 366.671875 103.03125 369.699219 103.414062 C 372.726562 103.789062 374.875 106.550781 374.496094 109.578125 L 358.710938 235.832031 C 358.363281 238.59375 356.015625 240.667969 353.226562 240.667969 Z M 353.226562 240.667969 " fill-opacity="1" fill-rule="nonzero"/><g clip-path="url(#271b2c4050)"><path fill="#f17a7e" d="M 253.777344 338.515625 C 252.152344 338.515625 250.613281 337.800781 249.5625 336.5625 C 248.511719 335.320312 248.058594 333.683594 248.320312 332.082031 L 264.105469 237.390625 C 264.609375 234.382812 267.457031 232.347656 270.464844 232.851562 C 273.476562 233.355469 275.511719 236.199219 275.007812 239.210938 L 259.222656 333.898438 C 258.777344 336.5625 256.476562 338.511719 253.777344 338.515625 Z M 253.777344 338.515625 " fill-opacity="1" fill-rule="nonzero"/></g><g clip-path="url(#739f8101bf)"><path fill="#f17a7e" d="M 348.484375 338.515625 C 345.785156 338.511719 343.480469 336.5625 343.039062 333.898438 L 327.253906 239.210938 C 326.75 236.199219 328.785156 233.355469 331.792969 232.851562 C 334.804688 232.347656 337.648438 234.382812 338.152344 237.390625 L 353.941406 332.082031 C 354.203125 333.683594 353.753906 335.320312 352.699219 336.5625 C 351.652344 337.800781 350.109375 338.515625 348.484375 338.515625 Z M 348.484375 338.515625 " fill-opacity="1" fill-rule="nonzero"/></g><g clip-path="url(#87c0155764)"><path fill="#f17a7e" d="M 183.523438 338.515625 C 180.46875 338.515625 177.996094 336.042969 177.996094 332.992188 L 177.996094 190.957031 C 177.996094 187.90625 180.46875 185.433594 183.523438 185.433594 C 186.574219 185.433594 189.046875 187.90625 189.046875 190.957031 L 189.046875 332.992188 C 189.046875 336.042969 186.574219 338.515625 183.523438 338.515625 Z M 183.523438 338.515625 " fill-opacity="1" fill-rule="nonzero"/></g><path fill="#f17a7e" d="M 288.503906 185.433594 L 77.753906 185.433594 C 74.699219 185.433594 72.226562 182.960938 72.226562 179.910156 C 72.226562 176.859375 74.699219 174.386719 77.753906 174.386719 L 288.503906 174.386719 C 291.554688 174.386719 294.027344 176.859375 294.027344 179.910156 C 294.027344 182.960938 291.554688 185.433594 288.503906 185.433594 Z M 288.503906 185.433594 " fill-opacity="1" fill-rule="nonzero"/><path fill="#f17a7e" d="M 222.988281 149.136719 L 144.054688 149.136719 C 141.003906 149.136719 138.53125 146.664062 138.53125 143.613281 C 138.53125 118.769531 158.671875 98.632812 183.523438 98.632812 C 208.371094 98.632812 228.511719 118.769531 228.511719 143.613281 C 228.511719 146.664062 226.042969 149.136719 222.988281 149.136719 Z M 222.988281 149.136719 " fill-opacity="1" fill-rule="nonzero"/><path fill="#f17a7e" d="M 183.523438 109.679688 C 180.46875 109.679688 177.996094 107.210938 177.996094 104.15625 L 177.996094 93.109375 C 177.996094 90.058594 180.46875 87.585938 183.523438 87.585938 C 186.574219 87.585938 189.046875 90.058594 189.046875 93.109375 L 189.046875 104.15625 C 189.046875 107.210938 186.574219 109.679688 183.523438 109.679688 Z M 183.523438 109.679688 " fill-opacity="1" fill-rule="nonzero"/><path fill="#f17a7e" d="M 248.246094 166.496094 L 118.796875 166.496094 C 115.746094 166.496094 113.273438 164.023438 113.273438 160.972656 C 113.273438 157.921875 115.746094 155.449219 118.796875 155.449219 L 248.246094 155.449219 C 251.300781 155.449219 253.773438 157.921875 253.773438 160.972656 C 253.773438 164.023438 251.300781 166.496094 248.246094 166.496094 Z M 248.246094 166.496094 " fill-opacity="1" fill-rule="nonzero"/><g clip-path="url(#f73fe08c86)"><path fill="#f17a7e" d="M 183.523438 71.015625 C 180.46875 71.015625 177.996094 68.546875 177.996094 65.492188 L 177.996094 41.820312 C 177.996094 38.769531 180.46875 36.296875 183.523438 36.296875 C 186.574219 36.296875 189.046875 38.769531 189.046875 41.820312 L 189.046875 65.492188 C 189.046875 68.546875 186.574219 71.015625 183.523438 71.015625 Z M 183.523438 71.015625 " fill-opacity="1" fill-rule="nonzero"/></g><path fill="#f17a7e" d="M 209.570312 87.585938 C 206.519531 87.585938 204.042969 85.117188 204.042969 82.0625 L 204.042969 67.070312 C 204.042969 64.019531 206.519531 61.546875 209.570312 61.546875 C 212.625 61.546875 215.09375 64.019531 215.09375 67.070312 L 215.09375 82.0625 C 215.09375 85.117188 212.625 87.585938 209.570312 87.585938 Z M 209.570312 87.585938 " fill-opacity="1" fill-rule="nonzero"/><path fill="#f17a7e" d="M 159.84375 87.585938 C 156.789062 87.585938 154.316406 85.117188 154.316406 82.0625 L 154.316406 67.070312 C 154.316406 64.019531 156.789062 61.546875 159.84375 61.546875 C 162.894531 61.546875 165.367188 64.019531 165.367188 67.070312 L 165.367188 82.0625 C 165.367188 85.117188 162.894531 87.585938 159.84375 87.585938 Z M 159.84375 87.585938 " fill-opacity="1" fill-rule="nonzero"/></svg>