<svg xmlns="http://www.w3.org/2000/svg" xmlns:xlink="http://www.w3.org/1999/xlink" width="500" zoomAndPan="magnify" viewBox="0 0 375 374.999991" height="500" preserveAspectRatio="xMidYMid meet" version="1.0"><defs><clipPath id="99e7fe348f"><path d="M 52.734375 1 L 321.984375 1 L 321.984375 375 L 52.734375 375 Z M 52.734375 1 " clip-rule="nonzero"/></clipPath></defs><g clip-path="url(#99e7fe348f)"><path fill="#f17a7e" d="M 321.996094 19.265625 L 321.996094 326.855469 L 304.050781 330.027344 L 304.050781 61.726562 C 304.050781 46.371094 291.570312 33.8125 276.167969 33.8125 L 123.15625 33.8125 L 301.503906 2.046875 C 312.183594 0.183594 321.996094 8.386719 321.996094 19.265625 Z M 291.507812 63.839844 L 291.507812 357.316406 C 291.507812 366.953125 283.742188 374.785156 274.117188 374.785156 L 70.121094 374.785156 C 60.558594 374.785156 52.734375 366.953125 52.734375 357.316406 L 52.734375 63.839844 C 52.734375 54.203125 60.558594 46.371094 70.121094 46.371094 L 274.117188 46.371094 C 283.742188 46.371094 291.507812 54.203125 291.507812 63.839844 Z M 244.0625 275.050781 L 181.21875 212.140625 L 197.628906 195.714844 L 212.84375 210.945312 L 219.886719 203.890625 C 236.929688 186.832031 244.296875 162.351562 239.503906 138.703125 L 173.679688 204.59375 L 164.5 195.402344 L 168.164062 191.734375 C 172.886719 187.007812 172.886719 179.34375 168.164062 174.617188 L 133.199219 139.617188 C 131.792969 138.207031 129.511719 138.207031 128.101562 139.617188 C 126.695312 141.023438 126.695312 143.308594 128.101562 144.714844 L 156.402344 173.046875 C 157.40625 174.050781 157.40625 175.675781 156.402344 176.679688 C 155.402344 177.683594 153.777344 177.683594 152.773438 176.679688 L 124.472656 148.347656 C 123.066406 146.941406 120.785156 146.941406 119.378906 148.347656 L 119.03125 148.699219 C 117.625 150.105469 117.625 152.390625 119.03125 153.800781 L 147.332031 182.128906 C 148.332031 183.132812 148.332031 184.757812 147.332031 185.761719 C 146.328125 186.765625 144.703125 186.765625 143.703125 185.761719 L 115.402344 157.433594 C 113.996094 156.023438 111.714844 156.023438 110.304688 157.433594 L 109.957031 157.78125 C 108.550781 159.191406 108.550781 161.472656 109.957031 162.882812 L 138.257812 191.210938 C 139.261719 192.214844 139.261719 193.839844 138.257812 194.84375 C 137.257812 195.847656 135.632812 195.847656 134.628906 194.84375 L 106.328125 166.515625 C 104.921875 165.105469 102.640625 165.105469 101.234375 166.515625 C 99.828125 167.921875 99.828125 170.207031 101.234375 171.613281 L 136.199219 206.617188 C 140.921875 211.34375 148.578125 211.34375 153.296875 206.617188 L 156.960938 202.949219 L 166.144531 212.140625 L 103.300781 275.050781 L 110.839844 282.59375 L 173.679688 219.683594 L 236.523438 282.59375 Z M 244.0625 275.050781 " fill-opacity="1" fill-rule="nonzero"/></g></svg>