<svg xmlns="http://www.w3.org/2000/svg" xmlns:xlink="http://www.w3.org/1999/xlink" width="500" zoomAndPan="magnify" viewBox="0 0 375 374.999991" height="500" preserveAspectRatio="xMidYMid meet" version="1.0"><defs><clipPath id="8780b2afc4"><path d="M 13.113281 215 L 339 215 L 339 332 L 13.113281 332 Z M 13.113281 215 " clip-rule="nonzero"/></clipPath><clipPath id="bdce03a51d"><path d="M 149 18.34375 L 282 18.34375 L 282 54 L 149 54 Z M 149 18.34375 " clip-rule="nonzero"/></clipPath><clipPath id="210a4af2bc"><path d="M 114 299 L 361.863281 299 L 361.863281 356.59375 L 114 356.59375 Z M 114 299 " clip-rule="nonzero"/></clipPath></defs><path fill="#f17a7e" d="M 61.8125 165.21875 L 61.8125 206.183594 L 71.0625 161.40625 L 71.144531 161.40625 L 67.816406 137.902344 C 66.960938 138.113281 66.160156 138.460938 65.4375 138.925781 C 57.089844 142.484375 38.152344 156.570312 35.414062 211.320312 L 51.800781 211.320312 C 53.050781 187.515625 57.425781 173.460938 61.8125 165.21875 Z M 61.8125 165.21875 " fill-opacity="1" fill-rule="nonzero"/><path fill="#f17a7e" d="M 89.199219 161.40625 L 102.992188 161.40625 L 106.53125 136.398438 C 105.539062 136.320312 104.519531 136.269531 103.460938 136.269531 C 103.371094 136.269531 103.285156 136.28125 103.199219 136.28125 L 104.570312 130.941406 L 91.707031 135.152344 L 91.707031 143.8125 L 87.613281 143.8125 L 87.613281 135.269531 L 74.390625 130.941406 L 76.117188 137.660156 L 72.605469 137.660156 L 75.96875 161.40625 Z M 89.199219 161.40625 " fill-opacity="1" fill-rule="nonzero"/><path fill="#f17a7e" d="M 107.617188 162.773438 L 117.148438 208.910156 L 117.148438 157.777344 C 118.664062 158.964844 120.125 160.265625 121.601562 161.59375 C 126.371094 165.878906 131.75 170.707031 139.402344 170.707031 C 139.765625 170.707031 140.136719 170.695312 140.511719 170.671875 C 143.777344 170.476562 146.992188 169.417969 150.316406 167.417969 L 147.503906 178.476562 L 152.792969 179.820312 L 157.339844 161.941406 C 158.984375 160.386719 160.671875 158.625 162.429688 156.621094 C 165.40625 153.222656 165.066406 148.050781 161.667969 145.074219 C 161.65625 145.066406 161.644531 145.058594 161.632812 145.046875 L 168.539062 117.863281 L 177.546875 120.152344 L 184.46875 92.886719 L 161.171875 86.96875 L 154.246094 114.230469 L 163.25 116.519531 L 156.507812 143.050781 C 154.15625 142.984375 151.792969 143.925781 150.117188 145.835938 C 143.195312 153.738281 140.085938 154.304688 139.53125 154.335938 C 138.09375 154.378906 135.152344 151.761719 132.539062 149.417969 C 127.566406 144.953125 121.109375 139.167969 111.257812 137.074219 Z M 179.367188 96.867188 L 175.085938 113.71875 L 172.113281 112.964844 L 176.394531 96.113281 Z M 173.046875 95.261719 L 168.765625 112.117188 L 165.792969 111.359375 L 170.074219 94.507812 Z M 159.46875 109.753906 L 163.75 92.902344 L 166.726562 93.65625 L 162.441406 110.507812 Z M 159.46875 109.753906 " fill-opacity="1" fill-rule="nonzero"/><path fill="#f17a7e" d="M 68.984375 98.238281 C 67.375 101.382812 66.460938 104.9375 66.460938 108.707031 C 66.460938 121.421875 76.765625 131.722656 89.476562 131.722656 C 102.191406 131.722656 112.496094 121.421875 112.496094 108.707031 C 112.496094 104.9375 111.582031 101.382812 109.972656 98.238281 C 106.550781 97.0625 97.269531 94.140625 89.480469 94.140625 C 81.6875 94.140625 72.402344 97.0625 68.984375 98.238281 Z M 68.984375 98.238281 " fill-opacity="1" fill-rule="nonzero"/><path fill="#f17a7e" d="M 65.78125 77.792969 C 68.285156 79.046875 68.71875 83.644531 68.542969 87.863281 C 68.371094 91.9375 67.628906 95.652344 67.628906 95.652344 C 67.628906 95.652344 67.808594 95.585938 68.140625 95.464844 C 70.539062 94.605469 80.914062 91.070312 89.480469 91.070312 C 98.046875 91.070312 108.417969 94.605469 110.816406 95.464844 C 111.148438 95.585938 111.328125 95.652344 111.328125 95.652344 C 111.328125 95.652344 110.589844 91.9375 110.417969 87.863281 C 110.238281 83.644531 110.671875 79.046875 113.179688 77.792969 C 116.285156 76.238281 123.804688 72.605469 125.074219 67.351562 C 125.769531 64.488281 124.597656 61.144531 119.84375 57.390625 C 118.664062 58.59375 116.308594 60.488281 112.347656 61.644531 C 113.445312 60.542969 115.707031 57.609375 117.285156 55.511719 C 112.683594 52.238281 109.03125 49.835938 105.910156 48.082031 C 104.941406 49.546875 103.265625 51.496094 100.453125 53.265625 C 101.144531 52.023438 102.339844 49.054688 103.257812 46.683594 C 98.125 44.175781 94.339844 43.574219 89.480469 43.574219 C 84.617188 43.574219 80.832031 44.175781 75.699219 46.683594 C 76.617188 49.054688 77.8125 52.023438 78.5 53.265625 C 75.6875 51.492188 74.011719 49.546875 73.046875 48.078125 C 69.925781 49.832031 66.269531 52.234375 61.671875 55.507812 C 63.25 57.609375 65.507812 60.542969 66.609375 61.644531 C 62.648438 60.488281 60.292969 58.589844 59.113281 57.386719 C 54.359375 61.140625 53.1875 64.484375 53.878906 67.347656 C 55.152344 72.605469 62.671875 76.238281 65.78125 77.792969 Z M 65.78125 77.792969 " fill-opacity="1" fill-rule="nonzero"/><g clip-path="url(#8780b2afc4)"><path fill="#f17a7e" d="M 34.128906 331.332031 L 117.152344 331.332031 C 129.507812 303.496094 145.601562 298.09375 151.339844 297.058594 C 152.058594 296.882812 153.25 296.605469 154.761719 296.304688 C 147.089844 291.511719 141.976562 283 141.976562 273.308594 C 141.976562 258.363281 154.136719 246.203125 169.082031 246.203125 C 184.03125 246.203125 196.191406 258.363281 196.191406 273.308594 C 196.191406 283 191.078125 291.511719 183.40625 296.304688 C 184.921875 296.605469 186.113281 296.882812 186.832031 297.058594 C 189.691406 297.578125 196.148438 299.425781 203.480469 305.925781 C 210.8125 299.425781 217.269531 297.578125 220.128906 297.058594 C 220.847656 296.882812 222.039062 296.605469 223.554688 296.304688 C 215.886719 291.511719 210.769531 283 210.769531 273.308594 C 210.769531 258.363281 222.929688 246.203125 237.878906 246.203125 C 252.828125 246.203125 264.988281 258.363281 264.988281 273.308594 C 264.988281 283 259.871094 291.511719 252.203125 296.304688 C 253.71875 296.605469 254.90625 296.882812 255.628906 297.058594 C 258.488281 297.578125 264.945312 299.425781 272.277344 305.925781 C 279.609375 299.425781 286.066406 297.578125 288.925781 297.058594 C 289.644531 296.882812 290.835938 296.605469 292.351562 296.304688 C 284.679688 291.511719 279.566406 283 279.566406 273.308594 C 279.566406 258.363281 291.726562 246.203125 306.671875 246.203125 C 310.453125 246.203125 314.050781 246.980469 317.320312 248.382812 L 317.320312 226.664062 L 338.121094 226.664062 L 338.121094 215.414062 L 13.328125 215.414062 L 13.328125 226.664062 L 34.128906 226.664062 Z M 34.128906 331.332031 " fill-opacity="1" fill-rule="nonzero"/></g><path fill="#f17a7e" d="M 128.242188 207.058594 L 172.230469 207.058594 L 172.230469 210.636719 L 128.242188 210.636719 Z M 128.242188 207.058594 " fill-opacity="1" fill-rule="nonzero"/><path fill="#f17a7e" d="M 180.074219 207.058594 L 255.925781 207.058594 L 255.925781 210.636719 L 180.074219 210.636719 Z M 180.074219 207.058594 " fill-opacity="1" fill-rule="nonzero"/><path fill="#f17a7e" d="M 136.167969 202.113281 L 160.378906 202.113281 L 160.378906 204.160156 L 136.167969 204.160156 Z M 136.167969 202.113281 " fill-opacity="1" fill-rule="nonzero"/><path fill="#f17a7e" d="M 138.472656 198.363281 L 162.683594 198.363281 L 162.683594 200.410156 L 138.472656 200.410156 Z M 138.472656 198.363281 " fill-opacity="1" fill-rule="nonzero"/><path fill="#f17a7e" d="M 137.023438 194.613281 L 161.234375 194.613281 L 161.234375 196.660156 L 137.023438 196.660156 Z M 137.023438 194.613281 " fill-opacity="1" fill-rule="nonzero"/><path fill="#f17a7e" d="M 300.140625 212 L 300.140625 210.238281 C 302.980469 208.949219 304.960938 206.09375 304.960938 202.769531 L 288.550781 202.769531 C 288.550781 206.09375 290.527344 208.949219 293.371094 210.238281 L 293.371094 212 Z M 300.140625 212 " fill-opacity="1" fill-rule="nonzero"/><path fill="#f17a7e" d="M 319.320312 212 L 319.320312 210.238281 C 322.160156 208.949219 324.140625 206.09375 324.140625 202.769531 L 307.730469 202.769531 C 307.730469 206.09375 309.710938 208.949219 312.550781 210.238281 L 312.550781 212 Z M 319.320312 212 " fill-opacity="1" fill-rule="nonzero"/><path fill="#f17a7e" d="M 77.605469 203.945312 C 76.105469 203.945312 74.875 205.171875 74.875 206.675781 C 74.875 208.175781 76.105469 209.402344 77.605469 209.402344 L 107.269531 209.402344 C 108.769531 209.402344 110 208.175781 110 206.675781 C 110 205.171875 108.769531 203.945312 107.269531 203.945312 Z M 77.605469 203.945312 " fill-opacity="1" fill-rule="nonzero"/><path fill="#f17a7e" d="M 263.683594 210.296875 L 273.945312 210.296875 L 272.992188 196.148438 L 264.636719 196.148438 Z M 263.683594 210.296875 " fill-opacity="1" fill-rule="nonzero"/><g clip-path="url(#bdce03a51d)"><path fill="#f17a7e" d="M 281.582031 46.132812 L 241.367188 46.132812 L 241.367188 18.34375 L 189.875 18.34375 L 189.875 46.132812 L 149.660156 46.132812 L 149.660156 53.292969 L 281.582031 53.292969 Z M 281.582031 46.132812 " fill-opacity="1" fill-rule="nonzero"/></g><path fill="#f17a7e" d="M 198.726562 199.941406 C 198.726562 201.628906 200.105469 203.007812 201.792969 203.007812 L 234.785156 203.007812 C 236.472656 203.007812 237.855469 201.628906 237.855469 199.941406 L 237.855469 182.808594 L 198.726562 182.808594 L 198.726562 184.9375 L 168.546875 184.9375 L 168.546875 188.5625 L 198.726562 188.5625 Z M 198.726562 199.941406 " fill-opacity="1" fill-rule="nonzero"/><path fill="#f17a7e" d="M 210.769531 145.890625 C 211.757812 144.941406 210.808594 142.730469 209.804688 143.691406 C 207.308594 146.089844 205.425781 149.507812 205.019531 153.617188 C 204.578125 158.046875 207.851562 160.890625 208.21875 165.050781 C 208.464844 167.851562 207.15625 170.917969 205.660156 172.785156 C 204.753906 173.90625 206.109375 175.703125 207.007812 174.582031 C 209.519531 171.460938 210.617188 166.941406 209.785156 162.507812 C 208.960938 158.097656 205.816406 155.972656 207.515625 150.941406 C 208.175781 148.980469 209.464844 147.144531 210.769531 145.890625 Z M 210.769531 145.890625 " fill-opacity="1" fill-rule="nonzero"/><path fill="#f17a7e" d="M 221.953125 145.890625 C 222.941406 144.941406 221.992188 142.730469 220.992188 143.691406 C 218.496094 146.089844 216.609375 149.507812 216.199219 153.617188 C 215.761719 158.046875 219.035156 160.890625 219.402344 165.050781 C 219.648438 167.851562 218.34375 170.917969 216.84375 172.785156 C 215.941406 173.90625 217.292969 175.703125 218.191406 174.582031 C 220.703125 171.460938 221.800781 166.941406 220.972656 162.507812 C 220.144531 158.097656 217 155.972656 218.699219 150.941406 C 219.363281 148.980469 220.648438 147.144531 221.953125 145.890625 Z M 221.953125 145.890625 " fill-opacity="1" fill-rule="nonzero"/><path fill="#f17a7e" d="M 233.136719 145.890625 C 234.125 144.941406 233.175781 142.730469 232.175781 143.691406 C 229.679688 146.089844 227.792969 149.507812 227.386719 153.617188 C 226.945312 158.046875 230.214844 160.890625 230.585938 165.050781 C 230.835938 167.851562 229.523438 170.917969 228.027344 172.785156 C 227.125 173.90625 228.476562 175.703125 229.375 174.582031 C 231.886719 171.460938 232.984375 166.941406 232.15625 162.507812 C 231.332031 158.097656 228.183594 155.972656 229.882812 150.941406 C 230.542969 148.980469 231.832031 147.144531 233.136719 145.890625 Z M 233.136719 145.890625 " fill-opacity="1" fill-rule="nonzero"/><g clip-path="url(#210a4af2bc)"><path fill="#f17a7e" d="M 310.980469 300.066406 C 309.578125 300.292969 308.140625 300.414062 306.675781 300.414062 C 305.210938 300.414062 303.773438 300.292969 302.371094 300.066406 C 296.5 300.515625 291.402344 301.710938 289.988281 302.066406 C 287.570312 302.476562 280.316406 304.398438 272.277344 313.082031 C 264.238281 304.398438 256.984375 302.476562 254.566406 302.066406 C 252.8125 301.628906 245.402344 299.894531 237.878906 299.894531 C 230.355469 299.894531 222.945312 301.628906 221.191406 302.066406 C 218.773438 302.476562 211.519531 304.398438 203.480469 313.082031 C 195.445312 304.398438 188.191406 302.476562 185.773438 302.066406 C 184.019531 301.628906 176.609375 299.894531 169.085938 299.894531 C 161.5625 299.894531 154.148438 301.628906 152.398438 302.066406 C 147.8125 302.847656 125.832031 309.046875 114.101562 356.5625 L 127.839844 356.5625 C 132.117188 340.703125 137.5 330.867188 142.324219 324.792969 L 135.859375 356.5625 L 339.898438 356.5625 L 333.441406 324.832031 C 338.25 330.914062 343.632812 340.746094 347.910156 356.5625 L 361.65625 356.5625 C 349.929688 309.046875 327.949219 302.847656 323.359375 302.066406 C 321.949219 301.710938 316.847656 300.515625 310.980469 300.066406 Z M 310.980469 300.066406 " fill-opacity="1" fill-rule="nonzero"/></g><path fill="#f17a7e" d="M 191.078125 273.308594 C 191.078125 274.027344 191.042969 274.746094 190.972656 275.464844 C 190.902344 276.179688 190.796875 276.890625 190.65625 277.597656 C 190.515625 278.304688 190.339844 279 190.132812 279.691406 C 189.921875 280.378906 189.679688 281.058594 189.40625 281.722656 C 189.128906 282.386719 188.820312 283.039062 188.480469 283.675781 C 188.140625 284.308594 187.773438 284.925781 187.371094 285.523438 C 186.972656 286.125 186.542969 286.703125 186.085938 287.257812 C 185.628906 287.816406 185.144531 288.347656 184.636719 288.855469 C 184.128906 289.367188 183.59375 289.851562 183.039062 290.304688 C 182.480469 290.761719 181.902344 291.191406 181.304688 291.59375 C 180.703125 291.992188 180.085938 292.363281 179.453125 292.703125 C 178.816406 293.042969 178.167969 293.347656 177.5 293.625 C 176.835938 293.898438 176.160156 294.140625 175.46875 294.351562 C 174.78125 294.558594 174.082031 294.734375 173.375 294.875 C 172.667969 295.015625 171.957031 295.121094 171.242188 295.191406 C 170.523438 295.261719 169.804688 295.296875 169.085938 295.296875 C 168.363281 295.296875 167.644531 295.261719 166.929688 295.191406 C 166.210938 295.121094 165.5 295.015625 164.792969 294.875 C 164.085938 294.734375 163.390625 294.558594 162.699219 294.351562 C 162.011719 294.140625 161.332031 293.898438 160.667969 293.625 C 160.003906 293.347656 159.351562 293.042969 158.71875 292.703125 C 158.082031 292.363281 157.464844 291.992188 156.867188 291.59375 C 156.265625 291.191406 155.6875 290.761719 155.132812 290.304688 C 154.574219 289.851562 154.042969 289.367188 153.53125 288.855469 C 153.023438 288.347656 152.539062 287.816406 152.082031 287.257812 C 151.625 286.703125 151.199219 286.125 150.796875 285.523438 C 150.398438 284.925781 150.027344 284.308594 149.6875 283.675781 C 149.347656 283.039062 149.039062 282.386719 148.765625 281.722656 C 148.488281 281.058594 148.246094 280.378906 148.039062 279.691406 C 147.828125 279 147.652344 278.304688 147.511719 277.597656 C 147.371094 276.890625 147.265625 276.179688 147.195312 275.464844 C 147.125 274.746094 147.089844 274.027344 147.089844 273.308594 C 147.089844 272.585938 147.125 271.867188 147.195312 271.152344 C 147.265625 270.433594 147.371094 269.722656 147.511719 269.015625 C 147.652344 268.3125 147.828125 267.613281 148.039062 266.925781 C 148.246094 266.234375 148.488281 265.558594 148.765625 264.890625 C 149.039062 264.226562 149.347656 263.578125 149.6875 262.941406 C 150.027344 262.304688 150.398438 261.6875 150.796875 261.089844 C 151.199219 260.492188 151.625 259.914062 152.082031 259.355469 C 152.539062 258.800781 153.023438 258.265625 153.53125 257.757812 C 154.042969 257.25 154.574219 256.765625 155.132812 256.308594 C 155.6875 255.851562 156.265625 255.421875 156.867188 255.023438 C 157.464844 254.621094 158.082031 254.253906 158.71875 253.914062 C 159.351562 253.574219 160.003906 253.265625 160.667969 252.992188 C 161.332031 252.714844 162.011719 252.472656 162.699219 252.261719 C 163.390625 252.054688 164.085938 251.878906 164.792969 251.738281 C 165.5 251.597656 166.210938 251.492188 166.929688 251.421875 C 167.644531 251.351562 168.363281 251.316406 169.085938 251.316406 C 169.804688 251.316406 170.523438 251.351562 171.242188 251.421875 C 171.957031 251.492188 172.667969 251.597656 173.375 251.738281 C 174.082031 251.878906 174.78125 252.054688 175.46875 252.261719 C 176.160156 252.472656 176.835938 252.714844 177.5 252.992188 C 178.167969 253.265625 178.816406 253.574219 179.453125 253.914062 C 180.085938 254.253906 180.703125 254.621094 181.304688 255.023438 C 181.902344 255.421875 182.480469 255.851562 183.039062 256.308594 C 183.59375 256.765625 184.128906 257.25 184.636719 257.757812 C 185.144531 258.265625 185.628906 258.800781 186.085938 259.355469 C 186.542969 259.914062 186.972656 260.492188 187.371094 261.089844 C 187.773438 261.6875 188.140625 262.304688 188.480469 262.941406 C 188.820312 263.578125 189.128906 264.226562 189.40625 264.890625 C 189.679688 265.558594 189.921875 266.234375 190.132812 266.925781 C 190.339844 267.613281 190.515625 268.3125 190.65625 269.015625 C 190.796875 269.722656 190.902344 270.433594 190.972656 271.152344 C 191.042969 271.867188 191.078125 272.585938 191.078125 273.308594 Z M 191.078125 273.308594 " fill-opacity="1" fill-rule="nonzero"/><path fill="#f17a7e" d="M 259.875 273.308594 C 259.875 274.027344 259.839844 274.746094 259.769531 275.464844 C 259.695312 276.179688 259.589844 276.890625 259.449219 277.597656 C 259.308594 278.304688 259.136719 279 258.925781 279.691406 C 258.71875 280.378906 258.476562 281.058594 258.199219 281.722656 C 257.921875 282.386719 257.617188 283.039062 257.277344 283.675781 C 256.9375 284.308594 256.566406 284.925781 256.167969 285.523438 C 255.765625 286.125 255.339844 286.703125 254.882812 287.257812 C 254.425781 287.816406 253.941406 288.347656 253.433594 288.855469 C 252.921875 289.367188 252.390625 289.851562 251.832031 290.304688 C 251.277344 290.761719 250.699219 291.191406 250.097656 291.59375 C 249.5 291.992188 248.882812 292.363281 248.246094 292.703125 C 247.613281 293.042969 246.960938 293.347656 246.296875 293.625 C 245.628906 293.898438 244.953125 294.140625 244.265625 294.351562 C 243.574219 294.558594 242.875 294.734375 242.171875 294.875 C 241.464844 295.015625 240.753906 295.121094 240.035156 295.191406 C 239.320312 295.261719 238.601562 295.296875 237.878906 295.296875 C 237.160156 295.296875 236.441406 295.261719 235.722656 295.191406 C 235.007812 295.121094 234.296875 295.015625 233.589844 294.875 C 232.882812 294.734375 232.183594 294.558594 231.496094 294.351562 C 230.804688 294.140625 230.128906 293.898438 229.464844 293.625 C 228.796875 293.347656 228.148438 293.042969 227.511719 292.703125 C 226.875 292.363281 226.257812 291.992188 225.660156 291.59375 C 225.0625 291.191406 224.484375 290.761719 223.925781 290.304688 C 223.371094 289.851562 222.835938 289.367188 222.328125 288.855469 C 221.816406 288.347656 221.335938 287.816406 220.878906 287.257812 C 220.421875 286.703125 219.992188 286.125 219.59375 285.523438 C 219.191406 284.925781 218.820312 284.308594 218.484375 283.675781 C 218.144531 283.039062 217.835938 282.386719 217.558594 281.722656 C 217.285156 281.058594 217.042969 280.378906 216.832031 279.691406 C 216.625 279 216.449219 278.304688 216.308594 277.597656 C 216.167969 276.890625 216.0625 276.179688 215.992188 275.464844 C 215.921875 274.746094 215.886719 274.027344 215.886719 273.308594 C 215.886719 272.585938 215.921875 271.867188 215.992188 271.152344 C 216.0625 270.433594 216.167969 269.722656 216.308594 269.015625 C 216.449219 268.3125 216.625 267.613281 216.832031 266.925781 C 217.042969 266.234375 217.285156 265.558594 217.558594 264.890625 C 217.835938 264.226562 218.144531 263.578125 218.484375 262.941406 C 218.820312 262.304688 219.191406 261.6875 219.59375 261.089844 C 219.992188 260.492188 220.421875 259.914062 220.878906 259.355469 C 221.335938 258.800781 221.816406 258.265625 222.328125 257.757812 C 222.835938 257.25 223.371094 256.765625 223.925781 256.308594 C 224.484375 255.851562 225.0625 255.421875 225.660156 255.023438 C 226.257812 254.621094 226.875 254.253906 227.511719 253.914062 C 228.148438 253.574219 228.796875 253.265625 229.464844 252.992188 C 230.128906 252.714844 230.804688 252.472656 231.496094 252.261719 C 232.183594 252.054688 232.882812 251.878906 233.589844 251.738281 C 234.296875 251.597656 235.007812 251.492188 235.722656 251.421875 C 236.441406 251.351562 237.160156 251.316406 237.878906 251.316406 C 238.601562 251.316406 239.320312 251.351562 240.035156 251.421875 C 240.753906 251.492188 241.464844 251.597656 242.171875 251.738281 C 242.875 251.878906 243.574219 252.054688 244.265625 252.261719 C 244.953125 252.472656 245.628906 252.714844 246.296875 252.992188 C 246.960938 253.265625 247.613281 253.574219 248.246094 253.914062 C 248.882812 254.253906 249.5 254.621094 250.097656 255.023438 C 250.699219 255.421875 251.277344 255.851562 251.832031 256.308594 C 252.390625 256.765625 252.921875 257.25 253.433594 257.757812 C 253.941406 258.265625 254.425781 258.800781 254.882812 259.355469 C 255.339844 259.914062 255.765625 260.492188 256.167969 261.089844 C 256.566406 261.6875 256.9375 262.304688 257.277344 262.941406 C 257.617188 263.578125 257.921875 264.226562 258.199219 264.890625 C 258.476562 265.558594 258.71875 266.234375 258.925781 266.925781 C 259.136719 267.613281 259.308594 268.3125 259.449219 269.015625 C 259.589844 269.722656 259.695312 270.433594 259.769531 271.152344 C 259.839844 271.867188 259.875 272.585938 259.875 273.308594 Z M 259.875 273.308594 " fill-opacity="1" fill-rule="nonzero"/><path fill="#f17a7e" d="M 328.667969 273.308594 C 328.667969 274.027344 328.632812 274.746094 328.5625 275.464844 C 328.492188 276.179688 328.386719 276.890625 328.246094 277.597656 C 328.105469 278.304688 327.929688 279 327.722656 279.691406 C 327.511719 280.378906 327.269531 281.058594 326.996094 281.722656 C 326.71875 282.386719 326.410156 283.039062 326.070312 283.675781 C 325.730469 284.308594 325.363281 284.925781 324.960938 285.523438 C 324.5625 286.125 324.132812 286.703125 323.675781 287.257812 C 323.21875 287.816406 322.734375 288.347656 322.226562 288.855469 C 321.71875 289.367188 321.183594 289.851562 320.628906 290.304688 C 320.070312 290.761719 319.492188 291.191406 318.894531 291.59375 C 318.292969 291.992188 317.675781 292.363281 317.042969 292.703125 C 316.40625 293.042969 315.757812 293.347656 315.089844 293.625 C 314.425781 293.898438 313.75 294.140625 313.058594 294.351562 C 312.371094 294.558594 311.671875 294.734375 310.964844 294.875 C 310.257812 295.015625 309.546875 295.121094 308.832031 295.191406 C 308.113281 295.261719 307.394531 295.296875 306.675781 295.296875 C 305.953125 295.296875 305.234375 295.261719 304.519531 295.191406 C 303.800781 295.121094 303.089844 295.015625 302.382812 294.875 C 301.675781 294.734375 300.980469 294.558594 300.289062 294.351562 C 299.601562 294.140625 298.921875 293.898438 298.257812 293.625 C 297.59375 293.347656 296.941406 293.042969 296.308594 292.703125 C 295.671875 292.363281 295.054688 291.992188 294.457031 291.59375 C 293.855469 291.191406 293.277344 290.761719 292.722656 290.304688 C 292.164062 289.851562 291.632812 289.367188 291.121094 288.855469 C 290.613281 288.347656 290.128906 287.816406 289.671875 287.257812 C 289.214844 286.703125 288.789062 286.125 288.386719 285.523438 C 287.988281 284.925781 287.617188 284.308594 287.277344 283.675781 C 286.9375 283.039062 286.628906 282.386719 286.355469 281.722656 C 286.078125 281.058594 285.835938 280.378906 285.628906 279.691406 C 285.417969 279 285.242188 278.304688 285.101562 277.597656 C 284.960938 276.890625 284.855469 276.179688 284.785156 275.464844 C 284.714844 274.746094 284.679688 274.027344 284.679688 273.308594 C 284.679688 272.585938 284.714844 271.867188 284.785156 271.152344 C 284.855469 270.433594 284.960938 269.722656 285.101562 269.015625 C 285.242188 268.3125 285.417969 267.613281 285.628906 266.925781 C 285.835938 266.234375 286.078125 265.558594 286.355469 264.890625 C 286.628906 264.226562 286.9375 263.578125 287.277344 262.941406 C 287.617188 262.304688 287.988281 261.6875 288.386719 261.089844 C 288.789062 260.492188 289.214844 259.914062 289.671875 259.355469 C 290.128906 258.800781 290.613281 258.265625 291.121094 257.757812 C 291.632812 257.25 292.164062 256.765625 292.722656 256.308594 C 293.277344 255.851562 293.855469 255.421875 294.457031 255.023438 C 295.054688 254.621094 295.671875 254.253906 296.308594 253.914062 C 296.941406 253.574219 297.59375 253.265625 298.257812 252.992188 C 298.921875 252.714844 299.601562 252.472656 300.289062 252.261719 C 300.980469 252.054688 301.675781 251.878906 302.382812 251.738281 C 303.089844 251.597656 303.800781 251.492188 304.519531 251.421875 C 305.234375 251.351562 305.953125 251.316406 306.675781 251.316406 C 307.394531 251.316406 308.113281 251.351562 308.832031 251.421875 C 309.546875 251.492188 310.257812 251.597656 310.964844 251.738281 C 311.671875 251.878906 312.371094 252.054688 313.058594 252.261719 C 313.75 252.472656 314.425781 252.714844 315.089844 252.992188 C 315.757812 253.265625 316.40625 253.574219 317.042969 253.914062 C 317.675781 254.253906 318.292969 254.621094 318.894531 255.023438 C 319.492188 255.421875 320.070312 255.851562 320.628906 256.308594 C 321.183594 256.765625 321.71875 257.25 322.226562 257.757812 C 322.734375 258.265625 323.21875 258.800781 323.675781 259.355469 C 324.132812 259.914062 324.5625 260.492188 324.960938 261.089844 C 325.363281 261.6875 325.730469 262.304688 326.070312 262.941406 C 326.410156 263.578125 326.71875 264.226562 326.996094 264.890625 C 327.269531 265.558594 327.511719 266.234375 327.722656 266.925781 C 327.929688 267.613281 328.105469 268.3125 328.246094 269.015625 C 328.386719 269.722656 328.492188 270.433594 328.5625 271.152344 C 328.632812 271.867188 328.667969 272.585938 328.667969 273.308594 Z M 328.667969 273.308594 " fill-opacity="1" fill-rule="nonzero"/></svg>