<svg xmlns="http://www.w3.org/2000/svg" xmlns:xlink="http://www.w3.org/1999/xlink" width="500" zoomAndPan="magnify" viewBox="0 0 375 374.999991" height="500" preserveAspectRatio="xMidYMid meet" version="1.0"><defs><clipPath id="bc6186293d"><path d="M 78 70 L 267 70 L 267 364 L 78 364 Z M 78 70 " clip-rule="nonzero"/></clipPath><clipPath id="71cb59509c"><path d="M 78.175781 333.164062 L 199.65625 70.382812 L 266.371094 101.226562 L 144.890625 364.003906 Z M 78.175781 333.164062 " clip-rule="nonzero"/></clipPath><clipPath id="2406e07feb"><path d="M 78.175781 333.164062 L 199.65625 70.382812 L 266.371094 101.226562 L 144.890625 364.003906 Z M 78.175781 333.164062 " clip-rule="nonzero"/></clipPath><clipPath id="2181ffa25e"><path d="M 107 70 L 297 70 L 297 364 L 107 364 Z M 107 70 " clip-rule="nonzero"/></clipPath><clipPath id="842b2adc07"><path d="M 230.457031 363.648438 L 107.546875 101.535156 L 174.09375 70.332031 L 297.003906 332.441406 Z M 230.457031 363.648438 " clip-rule="nonzero"/></clipPath><clipPath id="df685dd811"><path d="M 230.457031 363.648438 L 107.546875 101.535156 L 174.09375 70.332031 L 297.003906 332.441406 Z M 230.457031 363.648438 " clip-rule="nonzero"/></clipPath><clipPath id="5d5953a13f"><path d="M 53.378906 3.5 L 321.621094 3.5 L 321.621094 271.742188 L 53.378906 271.742188 Z M 53.378906 3.5 " clip-rule="nonzero"/></clipPath><clipPath id="8cbea79ee8"><path d="M 187.5 3.5 C 113.425781 3.5 53.378906 63.546875 53.378906 137.621094 C 53.378906 211.695312 113.425781 271.742188 187.5 271.742188 C 261.574219 271.742188 321.621094 211.695312 321.621094 137.621094 C 321.621094 63.546875 261.574219 3.5 187.5 3.5 " clip-rule="nonzero"/></clipPath><clipPath id="0276436dcc"><path d="M 53.378906 3.5 L 321.878906 3.5 L 321.878906 271.996094 L 53.378906 271.996094 Z M 53.378906 3.5 " clip-rule="nonzero"/></clipPath><clipPath id="4933829694"><path d="M 187.628906 3.5 C 113.484375 3.5 53.378906 63.605469 53.378906 137.75 C 53.378906 211.890625 113.484375 271.996094 187.628906 271.996094 C 261.773438 271.996094 321.878906 211.890625 321.878906 137.75 C 321.878906 63.605469 261.773438 3.5 187.628906 3.5 " clip-rule="nonzero"/></clipPath><clipPath id="e0cfbe2572"><path d="M 91.800781 23.179688 L 282.914062 23.179688 L 282.914062 252.0625 L 91.800781 252.0625 Z M 91.800781 23.179688 " clip-rule="nonzero"/></clipPath><clipPath id="8da9b94530"><path d="M 115 85.230469 L 260.789062 85.230469 L 260.789062 188.226562 L 115 188.226562 Z M 115 85.230469 " clip-rule="nonzero"/></clipPath></defs><g clip-path="url(#bc6186293d)"><g clip-path="url(#71cb59509c)"><g clip-path="url(#2406e07feb)"><path fill="#f17a7e" d="M 199.644531 70.410156 L 160.65625 154.746094 L 159.925781 156.324219 L 117.902344 247.226562 L 117.175781 248.800781 L 78.1875 333.136719 L 122.792969 324.292969 L 144.902344 363.980469 L 183.890625 279.644531 L 184.617188 278.066406 L 226.644531 187.164062 L 227.371094 185.589844 L 266.359375 101.253906 L 221.804688 110.121094 Z M 199.644531 70.410156 " fill-opacity="1" fill-rule="nonzero"/></g></g></g><g clip-path="url(#2181ffa25e)"><g clip-path="url(#842b2adc07)"><g clip-path="url(#df685dd811)"><path fill="#f17a7e" d="M 107.558594 101.5625 L 147.003906 185.683594 L 147.742188 187.257812 L 190.261719 277.929688 L 190.996094 279.5 L 230.445312 363.621094 L 252.390625 323.792969 L 296.992188 332.417969 L 257.542969 248.296875 L 256.808594 246.722656 L 214.289062 156.050781 L 213.550781 154.476562 L 174.105469 70.355469 L 152.210938 110.160156 Z M 107.558594 101.5625 " fill-opacity="1" fill-rule="nonzero"/></g></g></g><g clip-path="url(#5d5953a13f)"><g clip-path="url(#8cbea79ee8)"><path fill="#f17a7e" d="M 53.378906 3.5 L 321.621094 3.5 L 321.621094 271.742188 L 53.378906 271.742188 Z M 53.378906 3.5 " fill-opacity="1" fill-rule="nonzero"/></g></g><g clip-path="url(#0276436dcc)"><g clip-path="url(#4933829694)"><path stroke-linecap="butt" transform="matrix(0.750721, 0, 0, 0.750721, 53.377868, 3.498088)" fill="none" stroke-linejoin="miter" d="M 178.829542 0.00254709 C 80.065072 0.00254709 0.00138274 80.066237 0.00138274 178.830706 C 0.00138274 277.589973 80.065072 357.653662 178.829542 357.653662 C 277.594012 357.653662 357.657701 277.589973 357.657701 178.830706 C 357.657701 80.066237 277.594012 0.00254709 178.829542 0.00254709 " stroke="#f9faf4" stroke-width="16" stroke-opacity="1" stroke-miterlimit="4"/></g></g><g clip-path="url(#e0cfbe2572)"><path fill="#f9faf4" d="M 187.335938 252.0625 L 190.945312 240.84375 L 202.691406 240.84375 L 193.183594 233.933594 L 196.796875 222.71875 L 187.289062 229.628906 L 177.828125 222.765625 L 181.4375 233.980469 L 171.929688 240.890625 L 183.675781 240.890625 Z M 222.667969 246.476562 L 222.667969 234.664062 L 233.863281 231.050781 L 222.667969 227.433594 L 222.667969 215.667969 L 215.765625 225.144531 L 204.566406 221.527344 L 211.46875 231.050781 L 204.566406 240.570312 L 215.765625 236.953125 Z M 152.046875 246.476562 L 158.949219 236.953125 L 170.148438 240.570312 L 163.199219 231.050781 L 170.101562 221.527344 L 158.902344 225.144531 L 152.003906 215.621094 L 152.003906 227.386719 L 140.804688 231.003906 L 152.003906 234.621094 L 152.003906 246.476562 Z M 254.523438 230.226562 L 250.914062 219.011719 L 260.421875 212.097656 L 248.675781 212.097656 L 245.0625 200.882812 L 241.453125 212.097656 L 229.707031 212.097656 L 239.210938 219.011719 L 235.601562 230.226562 L 245.109375 223.3125 Z M 120.1875 230.226562 L 129.695312 223.3125 L 139.203125 230.226562 L 135.59375 219.011719 L 145.101562 212.097656 L 133.308594 212.097656 L 129.695312 200.882812 L 126.085938 212.097656 L 114.292969 212.097656 L 123.800781 219.011719 Z M 279.800781 204.867188 L 272.898438 195.34375 L 279.800781 185.824219 L 268.601562 189.4375 L 261.699219 179.917969 L 261.699219 191.683594 L 250.503906 195.296875 L 261.699219 198.914062 L 261.699219 210.679688 L 268.601562 201.15625 Z M 94.914062 204.867188 L 106.066406 201.25 L 112.96875 210.769531 L 112.96875 199.007812 L 124.164062 195.390625 L 112.96875 191.773438 L 112.96875 180.007812 L 106.066406 189.484375 L 94.867188 185.867188 L 101.769531 195.390625 Z M 280.625 184.175781 L 278.476562 177.492188 L 282.816406 177.492188 Z M 94.042969 184.175781 L 91.894531 177.535156 L 96.238281 177.535156 Z M 282.816406 97.703125 L 278.476562 97.703125 L 280.625 91.019531 Z M 96.238281 97.703125 L 91.894531 97.703125 L 94.042969 91.019531 Z M 94.914062 70.375 L 106.066406 73.992188 L 112.96875 64.46875 L 112.96875 76.234375 L 124.164062 79.851562 L 112.96875 83.46875 L 112.96875 95.230469 L 106.066406 85.753906 L 94.867188 89.371094 L 101.769531 79.851562 Z M 279.800781 70.375 L 272.898438 79.894531 L 279.800781 89.417969 L 268.601562 85.800781 L 261.699219 95.324219 L 261.699219 83.558594 L 250.503906 79.941406 L 261.699219 76.324219 L 261.699219 64.46875 L 268.601562 73.992188 Z M 120.1875 45.015625 L 129.695312 51.925781 L 139.203125 45.015625 L 135.59375 56.230469 L 145.101562 63.140625 L 133.308594 63.140625 L 129.695312 74.359375 L 126.085938 63.140625 L 114.292969 63.140625 L 123.800781 56.230469 Z M 254.523438 45.015625 L 250.914062 56.230469 L 260.421875 63.140625 L 248.675781 63.140625 L 245.0625 74.359375 L 241.359375 63.140625 L 229.613281 63.140625 L 239.121094 56.230469 L 235.511719 45.015625 L 245.015625 51.972656 Z M 152.046875 28.765625 L 158.949219 38.285156 L 170.148438 34.667969 L 163.199219 44.191406 L 170.101562 53.710938 L 158.902344 50.097656 L 152.003906 59.617188 L 152.003906 47.808594 L 140.804688 44.191406 L 152.003906 40.574219 L 152.003906 28.765625 Z M 222.667969 28.765625 L 222.667969 40.574219 L 233.863281 44.191406 L 222.667969 47.808594 L 222.667969 59.570312 L 215.765625 50.097656 L 204.566406 53.710938 L 211.46875 44.191406 L 204.566406 34.667969 L 215.765625 38.285156 Z M 187.335938 23.179688 L 190.945312 34.394531 L 202.691406 34.394531 L 193.183594 41.308594 L 196.796875 52.523438 L 187.289062 45.609375 L 177.828125 52.476562 L 181.4375 41.261719 L 171.929688 34.347656 L 183.675781 34.347656 Z M 187.335938 23.179688 " fill-opacity="1" fill-rule="evenodd"/></g><g clip-path="url(#8da9b94530)"><path fill="#f9faf4" d="M 260.210938 124.160156 C 259.644531 115.113281 252.746094 106.96875 244.039062 104.65625 C 238.445312 103.160156 232.070312 103.789062 226.960938 106.582031 C 226.742188 105.78125 226.480469 104.988281 226.183594 104.214844 C 222.652344 94.867188 213.429688 88.566406 203.832031 86.648438 C 201.941406 86.257812 200.03125 86.011719 198.113281 85.882812 C 192.589844 85.242188 187.589844 87.265625 182.988281 89.945312 C 171.003906 96.902344 161.144531 108.753906 146.730469 110.234375 C 146.480469 110.25 146.269531 110.441406 146.242188 110.703125 C 146.210938 110.984375 146.417969 111.238281 146.703125 111.265625 C 149.136719 111.574219 151.609375 111.488281 154.03125 111.082031 C 161.257812 109.847656 167.863281 105.996094 173.902344 102.191406 C 180.941406 97.996094 189.289062 90.894531 197.433594 91.730469 C 207.523438 92.21875 217.855469 96.6875 223.101562 105.691406 C 223.589844 106.507812 224.035156 107.355469 224.425781 108.234375 C 223.089844 109.257812 221.890625 110.472656 220.878906 111.863281 C 219.664062 113.617188 218.886719 115.746094 218.933594 117.84375 C 218.941406 118.066406 219.09375 118.273438 219.324219 118.332031 C 219.601562 118.40625 219.890625 118.238281 219.960938 117.957031 C 220.445312 116.15625 221.453125 114.628906 222.730469 113.394531 C 223.601562 112.59375 224.550781 111.890625 225.5625 111.28125 C 226.230469 110.878906 226.929688 110.523438 227.644531 110.207031 C 233.878906 107.441406 241.699219 107.871094 247.285156 111.550781 C 251.164062 114.136719 254.003906 118.3125 254.746094 122.917969 C 255.0625 125.09375 254.917969 127.304688 254.691406 129.476562 C 253.988281 135.976562 250.738281 142.164062 244.882812 145.199219 C 241.359375 147.066406 237.4375 148.195312 233.453125 148.515625 C 225.945312 149.289062 220.058594 146.445312 213.691406 143.890625 C 218.46875 142.046875 223.109375 138.296875 223.230469 132.910156 C 223.238281 132.339844 222.429688 132.183594 222.21875 132.710938 C 220.84375 135.914062 218.273438 137.964844 215.253906 139.484375 C 213.191406 140.535156 210.984375 141.203125 208.851562 142.113281 C 208.851562 142.109375 208.847656 142.109375 208.847656 142.109375 C 208.019531 141.84375 207.175781 141.597656 206.3125 141.371094 C 204.242188 140.851562 202.15625 140.488281 200.066406 140.265625 C 200.0625 140.265625 200.0625 140.265625 200.058594 140.265625 C 204.453125 137.09375 207.832031 132.117188 208.867188 127.164062 C 209.449219 124.59375 209.585938 121.742188 208.476562 119.285156 C 208.230469 118.734375 207.382812 119.007812 207.492188 119.59375 C 207.847656 121.933594 207.296875 124.285156 206.449219 126.457031 C 204.242188 132.417969 199.398438 137.0625 193.710938 139.710938 C 193.539062 139.800781 193.363281 139.878906 193.191406 139.964844 C 190.824219 140.003906 188.457031 140.175781 186.09375 140.4375 C 186.246094 140.273438 186.394531 140.105469 186.539062 139.933594 C 189.148438 136.898438 190.859375 132.839844 190.660156 128.847656 C 190.648438 128.621094 190.492188 128.421875 190.261719 128.367188 C 189.976562 128.296875 189.691406 128.480469 189.632812 128.765625 C 189.363281 129.910156 188.980469 131 188.507812 132.035156 C 187.078125 135.070312 184.730469 137.625 181.921875 139.421875 C 174.769531 144.054688 164.011719 143.140625 156.792969 139.144531 C 152.890625 136.824219 149.90625 133.058594 146.640625 129.761719 C 146.234375 129.359375 145.582031 129.800781 145.777344 130.324219 C 146.667969 132.621094 147.75 134.832031 149.117188 136.960938 C 151.921875 141.445312 155.734375 144.21875 160.382812 145.734375 C 158.730469 146.273438 157.109375 146.902344 155.539062 147.648438 C 151.382812 149.578125 147.304688 152.390625 142.75 152.523438 C 132.734375 153.929688 123.058594 139.585938 120.976562 130.976562 C 119.109375 123.652344 122.375 115.371094 128.902344 111.425781 C 137.160156 106.351562 147.53125 106.535156 156.554688 102.824219 C 160.734375 101.242188 164.304688 98.390625 167.992188 96.003906 C 168.519531 95.660156 168.085938 94.84375 167.496094 95.101562 C 163.558594 96.957031 159.917969 99.347656 155.738281 100.527344 C 149.5625 102.378906 142.859375 102.714844 136.460938 104.132812 C 131.953125 105.097656 127.324219 106.769531 123.667969 109.742188 C 117.382812 114.714844 114.3125 123.242188 115.8125 131.132812 C 117.257812 139.09375 123.054688 148.246094 129.308594 153.371094 C 133.105469 156.515625 138.1875 158.734375 143.3125 158.078125 C 144.675781 158.039062 146 157.824219 147.257812 157.5 C 148.128906 163.71875 148.863281 169.964844 149.335938 176.214844 C 149.640625 179.957031 149.738281 184.441406 149.675781 188.203125 C 149.675781 188.203125 154.277344 186.054688 154.277344 186.054688 C 158.738281 184.007812 163.8125 182.726562 168.699219 181.710938 C 182.117188 179.101562 202.003906 177.242188 214.875 182.136719 C 215.121094 182.238281 215.410156 182.136719 215.53125 181.898438 C 215.664062 181.644531 215.5625 181.332031 215.308594 181.203125 C 202.5 174.96875 181.96875 175.0625 167.886719 176.515625 C 163.832031 176.992188 159.871094 177.578125 155.933594 178.609375 C 155.085938 170.898438 153.699219 163.292969 152.195312 155.6875 C 155.011719 154.398438 157.566406 152.917969 160.484375 151.832031 C 163.980469 150.53125 167.679688 149.757812 171.390625 148.972656 C 176.996094 147.789062 182.71875 146.671875 188.371094 146.191406 C 194.855469 145.640625 201.304688 145.921875 207.460938 147.933594 C 211.0625 149.121094 214.464844 150.75 218.054688 152.0625 C 217.449219 158.144531 217.464844 164.390625 217.296875 170.5 C 211.457031 168.546875 205.363281 167.480469 199.238281 166.96875 C 191.730469 166.429688 183.953125 166.871094 176.878906 169.582031 C 176.636719 169.675781 176.5 169.933594 176.566406 170.191406 C 176.636719 170.46875 176.917969 170.632812 177.195312 170.5625 C 180.726562 169.644531 184.371094 169.332031 187.992188 169.382812 C 196.988281 169.578125 205.929688 171.78125 214.164062 175.316406 C 215.785156 176.023438 217.355469 176.8125 218.808594 177.660156 C 218.808594 177.660156 223.09375 179.695312 223.09375 179.695312 C 223.144531 178.445312 223.359375 174.632812 223.375 173.4375 C 223.480469 167.070312 223.230469 160.1875 223.636719 153.714844 C 231.699219 155.4375 240.394531 154.191406 247.621094 150.195312 C 257.101562 145.046875 260.789062 134.445312 260.210938 124.160156 Z M 260.210938 124.160156 " fill-opacity="1" fill-rule="nonzero"/></g></svg>