<svg xmlns="http://www.w3.org/2000/svg" xmlns:xlink="http://www.w3.org/1999/xlink" width="500" zoomAndPan="magnify" viewBox="0 0 375 374.999991" height="500" preserveAspectRatio="xMidYMid meet" version="1.0"><defs><clipPath id="dae5270f46"><path d="M 106.390625 86.222656 L 308.160156 86.222656 L 308.160156 256 L 106.390625 256 Z M 106.390625 86.222656 " clip-rule="nonzero"/></clipPath><clipPath id="53a88406e3"><path d="M 106.390625 128 L 308.160156 128 L 308.160156 138 L 106.390625 138 Z M 106.390625 128 " clip-rule="nonzero"/></clipPath><clipPath id="7ca8c2ef54"><path d="M 138 74.070312 L 149 74.070312 L 149 109 L 138 109 Z M 138 74.070312 " clip-rule="nonzero"/></clipPath><clipPath id="415eb4b8a9"><path d="M 181 74.070312 L 192 74.070312 L 192 109 L 181 109 Z M 181 74.070312 " clip-rule="nonzero"/></clipPath><clipPath id="53f875f1f6"><path d="M 223 74.070312 L 234 74.070312 L 234 109 L 223 109 Z M 223 74.070312 " clip-rule="nonzero"/></clipPath><clipPath id="cf46659da6"><path d="M 266 74.070312 L 277 74.070312 L 277 109 L 266 109 Z M 266 74.070312 " clip-rule="nonzero"/></clipPath><clipPath id="3269960517"><path d="M 66.707031 152.085938 L 215 152.085938 L 215 300.570312 L 66.707031 300.570312 Z M 66.707031 152.085938 " clip-rule="nonzero"/></clipPath></defs><g clip-path="url(#dae5270f46)"><path fill="#f9faf4" d="M 116.449219 151.546875 L 116.449219 105.125 C 116.449219 102.765625 117.421875 100.621094 118.980469 99.058594 C 120.542969 97.5 122.695312 96.53125 125.054688 96.53125 L 289.730469 96.53125 C 292.089844 96.53125 294.238281 97.5 295.800781 99.058594 C 297.359375 100.621094 298.328125 102.765625 298.328125 105.125 L 298.328125 237.367188 C 298.328125 239.722656 297.359375 241.871094 295.800781 243.433594 C 294.238281 244.992188 292.089844 245.960938 289.730469 245.960938 L 217.28125 245.960938 C 216.4375 249.304688 215.371094 252.589844 214.097656 255.785156 L 289.730469 255.785156 C 294.800781 255.785156 299.414062 253.710938 302.75 250.378906 C 306.089844 247.039062 308.160156 242.4375 308.160156 237.367188 L 308.160156 105.125 C 308.160156 100.054688 306.089844 95.449219 302.75 92.113281 C 299.414062 88.78125 294.800781 86.707031 289.730469 86.707031 L 125.054688 86.707031 C 119.976562 86.707031 115.371094 88.78125 112.03125 92.113281 C 108.691406 95.449219 106.621094 100.054688 106.621094 105.125 L 106.621094 155.46875 C 109.804688 153.941406 113.085938 152.632812 116.449219 151.546875 " fill-opacity="1" fill-rule="nonzero"/></g><g clip-path="url(#53a88406e3)"><path fill="#f9faf4" d="M 111.535156 128.09375 C 108.820312 128.09375 106.621094 130.292969 106.621094 133.003906 C 106.621094 135.71875 108.820312 137.917969 111.535156 137.917969 L 303.246094 137.917969 C 305.960938 137.917969 308.160156 135.71875 308.160156 133.003906 C 308.160156 130.292969 305.960938 128.09375 303.246094 128.09375 L 111.535156 128.09375 " fill-opacity="1" fill-rule="nonzero"/></g><g clip-path="url(#7ca8c2ef54)"><path fill="#f9faf4" d="M 148.402344 78.984375 C 148.402344 76.269531 146.203125 74.070312 143.488281 74.070312 C 140.773438 74.070312 138.574219 76.269531 138.574219 78.984375 L 138.574219 103.539062 C 138.574219 106.25 140.773438 108.449219 143.488281 108.449219 C 146.203125 108.449219 148.402344 106.25 148.402344 103.539062 L 148.402344 78.984375 " fill-opacity="1" fill-rule="nonzero"/></g><g clip-path="url(#415eb4b8a9)"><path fill="#f9faf4" d="M 191.003906 78.984375 C 191.003906 76.269531 188.804688 74.070312 186.089844 74.070312 C 183.375 74.070312 181.175781 76.269531 181.175781 78.984375 L 181.175781 103.539062 C 181.175781 106.25 183.375 108.449219 186.089844 108.449219 C 188.804688 108.449219 191.003906 106.25 191.003906 103.539062 L 191.003906 78.984375 " fill-opacity="1" fill-rule="nonzero"/></g><g clip-path="url(#53f875f1f6)"><path fill="#f9faf4" d="M 233.605469 78.984375 C 233.605469 76.269531 231.40625 74.070312 228.691406 74.070312 C 225.976562 74.070312 223.777344 76.269531 223.777344 78.984375 L 223.777344 103.539062 C 223.777344 106.25 225.976562 108.449219 228.691406 108.449219 C 231.40625 108.449219 233.605469 106.25 233.605469 103.539062 L 233.605469 78.984375 " fill-opacity="1" fill-rule="nonzero"/></g><g clip-path="url(#cf46659da6)"><path fill="#f9faf4" d="M 276.210938 78.984375 C 276.210938 76.269531 274.007812 74.070312 271.292969 74.070312 C 268.578125 74.070312 266.378906 76.269531 266.378906 78.984375 L 266.378906 103.539062 C 266.378906 106.25 268.578125 108.449219 271.292969 108.449219 C 274.007812 108.449219 276.210938 106.25 276.210938 103.539062 L 276.210938 78.984375 " fill-opacity="1" fill-rule="nonzero"/></g><g clip-path="url(#3269960517)"><path fill="#f9faf4" d="M 140.734375 152.652344 C 161.175781 152.652344 179.683594 160.929688 193.082031 174.3125 C 206.476562 187.699219 214.765625 206.1875 214.765625 226.609375 C 214.765625 247.035156 206.476562 265.527344 193.082031 278.910156 C 179.683594 292.292969 161.175781 300.570312 140.734375 300.570312 L 140.734375 290.75 C 158.464844 290.75 174.511719 283.570312 186.128906 271.964844 C 197.746094 260.355469 204.933594 244.324219 204.933594 226.609375 C 204.933594 208.898438 197.746094 192.867188 186.128906 181.257812 C 174.511719 169.652344 158.464844 162.472656 140.734375 162.472656 Z M 140.734375 152.652344 L 140.734375 162.472656 C 123.007812 162.472656 106.957031 169.652344 95.339844 181.257812 C 83.722656 192.867188 76.535156 208.898438 76.535156 226.609375 C 76.535156 244.324219 83.722656 260.355469 95.339844 271.964844 C 106.957031 283.570312 123.007812 290.75 140.734375 290.75 L 140.734375 300.570312 C 120.292969 300.570312 101.785156 292.292969 88.386719 278.910156 C 74.992188 265.527344 66.707031 247.035156 66.707031 226.609375 C 66.707031 206.1875 74.992188 187.699219 88.386719 174.3125 C 101.785156 160.929688 120.292969 152.652344 140.734375 152.652344 " fill-opacity="1" fill-rule="nonzero"/></g><path fill="#f9faf4" d="M 272.839844 147.667969 L 282.671875 147.667969 C 284.027344 147.667969 285.128906 148.765625 285.128906 150.125 L 285.128906 170.316406 C 285.128906 171.671875 284.027344 172.773438 282.671875 172.773438 L 272.839844 172.773438 L 272.839844 167.863281 L 280.214844 167.863281 L 280.214844 152.578125 L 272.839844 152.578125 Z M 263.007812 147.667969 L 272.839844 147.667969 L 272.839844 152.578125 L 265.464844 152.578125 L 265.464844 167.863281 L 272.839844 167.863281 L 272.839844 172.773438 L 263.007812 172.773438 C 261.652344 172.773438 260.546875 171.671875 260.546875 170.316406 L 260.546875 150.125 C 260.546875 148.765625 261.652344 147.667969 263.007812 147.667969 " fill-opacity="1" fill-rule="nonzero"/><path fill="#f9faf4" d="M 234.425781 147.667969 L 244.257812 147.667969 C 245.613281 147.667969 246.714844 148.765625 246.714844 150.125 L 246.714844 170.316406 C 246.714844 171.671875 245.613281 172.773438 244.257812 172.773438 L 234.425781 172.773438 L 234.425781 167.863281 L 241.800781 167.863281 L 241.800781 152.578125 L 234.425781 152.578125 Z M 224.59375 147.667969 L 234.425781 147.667969 L 234.425781 152.578125 L 227.054688 152.578125 L 227.054688 167.863281 L 234.425781 167.863281 L 234.425781 172.773438 L 224.59375 172.773438 C 223.238281 172.773438 222.136719 171.671875 222.136719 170.316406 L 222.136719 150.125 C 222.136719 148.765625 223.238281 147.667969 224.59375 147.667969 " fill-opacity="1" fill-rule="nonzero"/><path fill="#f9faf4" d="M 272.839844 179.058594 L 282.671875 179.058594 C 284.027344 179.058594 285.128906 180.15625 285.128906 181.511719 L 285.128906 201.707031 C 285.128906 203.0625 284.027344 204.160156 282.671875 204.160156 L 272.839844 204.160156 L 272.839844 199.25 L 280.214844 199.25 L 280.214844 183.96875 L 272.839844 183.96875 Z M 263.007812 179.058594 L 272.839844 179.058594 L 272.839844 183.96875 L 265.464844 183.96875 L 265.464844 199.25 L 272.839844 199.25 L 272.839844 204.160156 L 263.007812 204.160156 C 261.652344 204.160156 260.546875 203.0625 260.546875 201.707031 L 260.546875 181.511719 C 260.546875 180.15625 261.652344 179.058594 263.007812 179.058594 " fill-opacity="1" fill-rule="nonzero"/><path fill="#f9faf4" d="M 234.425781 179.058594 L 244.257812 179.058594 C 245.613281 179.058594 246.714844 180.15625 246.714844 181.511719 L 246.714844 201.707031 C 246.714844 203.0625 245.613281 204.160156 244.257812 204.160156 L 234.425781 204.160156 L 234.425781 199.25 L 241.800781 199.25 L 241.800781 183.96875 L 234.425781 183.96875 Z M 224.59375 179.058594 L 234.425781 179.058594 L 234.425781 183.96875 L 227.054688 183.96875 L 227.054688 199.25 L 234.425781 199.25 L 234.425781 204.160156 L 224.59375 204.160156 C 223.238281 204.160156 222.136719 203.0625 222.136719 201.707031 L 222.136719 181.511719 C 222.136719 180.15625 223.238281 179.058594 224.59375 179.058594 " fill-opacity="1" fill-rule="nonzero"/><path fill="#f9faf4" d="M 272.839844 210.445312 L 282.671875 210.445312 C 284.027344 210.445312 285.128906 211.546875 285.128906 212.902344 L 285.128906 233.09375 C 285.128906 234.453125 284.027344 235.550781 282.671875 235.550781 L 272.839844 235.550781 L 272.839844 230.640625 L 280.214844 230.640625 L 280.214844 215.355469 L 272.839844 215.355469 Z M 263.007812 210.445312 L 272.839844 210.445312 L 272.839844 215.355469 L 265.464844 215.355469 L 265.464844 230.640625 L 272.839844 230.640625 L 272.839844 235.550781 L 263.007812 235.550781 C 261.652344 235.550781 260.546875 234.453125 260.546875 233.09375 L 260.546875 212.902344 C 260.546875 211.546875 261.652344 210.445312 263.007812 210.445312 " fill-opacity="1" fill-rule="nonzero"/><path fill="#f9faf4" d="M 234.425781 210.445312 L 244.257812 210.445312 C 245.613281 210.445312 246.714844 211.546875 246.714844 212.902344 L 246.714844 233.09375 C 246.714844 234.453125 245.613281 235.550781 244.257812 235.550781 L 234.425781 235.550781 L 234.425781 230.640625 L 241.800781 230.640625 L 241.800781 215.355469 L 234.425781 215.355469 Z M 224.59375 210.445312 L 234.425781 210.445312 L 234.425781 215.355469 L 227.054688 215.355469 L 227.054688 230.640625 L 234.425781 230.640625 L 234.425781 235.550781 L 224.59375 235.550781 C 223.238281 235.550781 222.136719 234.453125 222.136719 233.09375 L 222.136719 212.902344 C 222.136719 211.546875 223.238281 210.445312 224.59375 210.445312 " fill-opacity="1" fill-rule="nonzero"/><path fill="#f9faf4" d="M 145.945312 177.207031 C 145.945312 174.492188 143.746094 172.296875 141.03125 172.296875 C 138.316406 172.296875 136.113281 174.492188 136.113281 177.207031 L 136.113281 226.316406 C 136.113281 229.027344 138.316406 231.230469 141.03125 231.230469 C 143.746094 231.230469 145.945312 229.027344 145.945312 226.316406 L 145.945312 177.207031 " fill-opacity="1" fill-rule="nonzero"/><path fill="#f9faf4" d="M 144.121094 222.519531 C 142.023438 220.8125 138.933594 221.128906 137.226562 223.226562 C 135.519531 225.328125 135.839844 228.410156 137.9375 230.113281 L 164.664062 251.765625 C 166.765625 253.472656 169.851562 253.152344 171.558594 251.058594 C 173.265625 248.960938 172.949219 245.875 170.847656 244.171875 L 144.121094 222.519531 " fill-opacity="1" fill-rule="nonzero"/></svg>