<svg xmlns="http://www.w3.org/2000/svg" xmlns:xlink="http://www.w3.org/1999/xlink" width="500" zoomAndPan="magnify" viewBox="0 0 375 374.999991" height="500" preserveAspectRatio="xMidYMid meet" version="1.0"><defs><g/><clipPath id="e54edaa356"><path d="M 15.675781 185.925781 L 94.753906 185.925781 L 94.753906 223.945312 L 15.675781 223.945312 Z M 15.675781 185.925781 " clip-rule="nonzero"/></clipPath><clipPath id="0e87e507be"><path d="M 42.050781 221.660156 C 46.105469 223.039062 50.710938 223.945312 55.238281 223.945312 C 59.761719 223.945312 64.113281 223.167969 68.125 221.789062 C 68.210938 221.746094 68.296875 221.746094 68.378906 221.703125 C 83.445312 216.1875 94.542969 201.625 94.753906 185.925781 L 15.675781 185.925781 C 15.890625 201.710938 26.8125 216.277344 42.050781 221.660156 " clip-rule="nonzero"/></clipPath><clipPath id="b3a687285a"><path d="M 15.675781 183.269531 L 94.753906 183.269531 L 94.753906 188.210938 L 15.675781 188.210938 Z M 15.675781 183.269531 " clip-rule="nonzero"/></clipPath><clipPath id="214858befa"><path d="M 18.132812 183.269531 L 92.296875 183.269531 C 92.949219 183.269531 93.574219 183.527344 94.035156 183.988281 C 94.496094 184.449219 94.753906 185.074219 94.753906 185.726562 C 94.753906 186.378906 94.496094 187.003906 94.035156 187.464844 C 93.574219 187.925781 92.949219 188.183594 92.296875 188.183594 L 18.132812 188.183594 C 17.480469 188.183594 16.855469 187.925781 16.394531 187.464844 C 15.933594 187.003906 15.675781 186.378906 15.675781 185.726562 C 15.675781 185.074219 15.933594 184.449219 16.394531 183.988281 C 16.855469 183.527344 17.480469 183.269531 18.132812 183.269531 " clip-rule="nonzero"/></clipPath><clipPath id="ff97c850fb"><path d="M 52 160 L 89 160 L 89 181.164062 L 52 181.164062 Z M 52 160 " clip-rule="nonzero"/></clipPath></defs><g fill="#f17a7e" fill-opacity="1"><g transform="translate(106.85803, 221.94307)"><g><path d="M 24.441406 -0.484375 C 25.351562 0.0625 26.867188 -0.546875 27.292969 -1.457031 C 27.777344 -2.546875 27.171875 -3.273438 26.382812 -3.882812 C 26.140625 -4.0625 25.835938 -4.304688 25.59375 -4.304688 C 24.015625 -4.367188 23.410156 -5.519531 22.5625 -6.550781 C 21.167969 -8.429688 20.4375 -10.554688 19.953125 -12.796875 C 19.164062 -16.191406 18.984375 -19.710938 17.285156 -22.925781 C 16.980469 -23.472656 16.980469 -24.257812 16.800781 -24.925781 C 16.375 -26.503906 16.738281 -27.65625 17.953125 -28.867188 C 22.074219 -32.992188 23.835938 -37.785156 21.773438 -43.605469 C 21.167969 -45.183594 20.378906 -46.457031 19.042969 -47.609375 C 17.648438 -48.761719 16.011719 -49.246094 14.433594 -49.730469 C 11.949219 -50.519531 9.402344 -50.945312 6.792969 -50.761719 C 4.183594 -50.582031 2.851562 -48.882812 3.03125 -46.457031 C 3.394531 -40.9375 3.882812 -35.417969 3.640625 -29.898438 C 3.394531 -24.320312 4.003906 -18.800781 4.183594 -13.28125 C 4.246094 -10.554688 4.609375 -7.882812 4.425781 -5.15625 C 4.304688 -4.0625 4.425781 -2.972656 4.792969 -1.878906 C 4.914062 -1.335938 5.214844 -0.847656 5.882812 -0.847656 C 6.488281 -0.847656 6.851562 -1.273438 7.15625 -1.757812 C 7.519531 -2.367188 7.398438 -3.09375 7.460938 -3.820312 C 7.761719 -8.003906 6.972656 -12.191406 6.914062 -16.4375 C 6.914062 -17.589844 7.035156 -18.800781 6.914062 -19.953125 C 6.792969 -20.984375 7.15625 -21.53125 8.066406 -21.953125 C 9.277344 -22.5 10.492188 -22.984375 11.707031 -23.59375 C 13.523438 -24.441406 13.523438 -24.441406 14.132812 -22.621094 C 15.222656 -19.589844 15.949219 -16.496094 16.558594 -13.34375 C 17.042969 -10.613281 18.074219 -8.066406 19.105469 -5.578125 C 20.136719 -3.152344 22.378906 -1.820312 24.441406 -0.484375 Z M 6.972656 -25.351562 C 6.1875 -25.835938 6.488281 -26.867188 6.550781 -27.714844 L 6.550781 -30.261719 C 6.429688 -33.476562 7.398438 -36.632812 7.15625 -39.847656 C 7.035156 -41.605469 6.851562 -43.425781 6.792969 -45.183594 C 6.792969 -47.183594 7.035156 -47.425781 8.976562 -47.304688 C 10.429688 -47.183594 11.886719 -46.941406 13.34375 -46.636719 C 14.433594 -46.457031 15.34375 -45.851562 16.070312 -44.941406 C 16.496094 -44.394531 16.980469 -43.910156 17.464844 -43.363281 C 20.4375 -39.847656 20.558594 -36.269531 17.527344 -32.8125 C 15.164062 -30.203125 12.433594 -28.019531 9.523438 -26.019531 C 8.792969 -25.472656 7.882812 -24.746094 6.972656 -25.351562 Z M 6.972656 -25.351562 "/></g></g></g><g fill="#f17a7e" fill-opacity="1"><g transform="translate(137.362619, 221.94307)"><g><path d="M 3.457031 -0.484375 C 4.304688 0.242188 5.09375 -0.425781 5.820312 -0.667969 C 6.550781 -0.910156 6.730469 -1.515625 6.914062 -2.121094 C 7.277344 -3.519531 7.761719 -4.972656 7.945312 -6.429688 C 8.492188 -10.554688 9.339844 -14.554688 10.492188 -18.558594 C 11.039062 -20.679688 11.28125 -20.984375 13.464844 -21.105469 C 15.707031 -21.226562 18.011719 -21.167969 20.257812 -21.167969 C 22.320312 -21.167969 22.5625 -20.984375 22.863281 -18.984375 C 23.226562 -16.679688 23.472656 -14.375 23.835938 -12.070312 C 24.378906 -8.792969 24.988281 -5.578125 25.59375 -2.367188 C 25.714844 -1.757812 26.019531 -1.152344 26.746094 -1.089844 C 27.65625 -1.089844 27.898438 -1.757812 28.082031 -2.488281 C 28.140625 -2.789062 28.140625 -3.09375 28.140625 -3.519531 C 27.898438 -5.457031 27.535156 -7.460938 27.351562 -9.460938 C 26.929688 -15.222656 25.835938 -20.863281 24.683594 -26.503906 C 24.320312 -28.445312 24.015625 -30.386719 23.714844 -32.265625 C 22.984375 -37.296875 22.441406 -42.332031 21.105469 -47.246094 C 20.800781 -48.214844 20.558594 -49.246094 20.136719 -50.15625 C 19.285156 -51.914062 17.527344 -52.15625 16.132812 -50.761719 C 15.164062 -49.851562 14.433594 -48.699219 14.070312 -47.425781 C 13.34375 -44.699219 12.554688 -41.96875 11.828125 -39.300781 C 10.796875 -35.117188 10.128906 -30.871094 8.671875 -26.804688 C 7.277344 -22.925781 6.125 -18.863281 5.761719 -14.796875 C 5.398438 -10.613281 4.671875 -6.609375 3.335938 -2.667969 C 3.09375 -1.941406 2.730469 -1.152344 3.457031 -0.484375 Z M 13.585938 -24.378906 C 12.492188 -24.320312 12.128906 -24.746094 12.371094 -25.777344 C 13.101562 -29.414062 13.34375 -33.175781 14.675781 -36.753906 C 15.648438 -39.300781 16.191406 -41.96875 16.800781 -44.636719 C 16.980469 -45.425781 17.101562 -46.152344 17.589844 -47.003906 C 18.558594 -46.273438 18.558594 -45.363281 18.742188 -44.578125 C 20.074219 -38.632812 20.5 -32.507812 21.53125 -26.5625 C 21.773438 -25.109375 21.410156 -24.746094 19.894531 -24.683594 C 17.769531 -24.5625 15.707031 -24.503906 13.585938 -24.378906 Z M 13.585938 -24.378906 "/></g></g></g><g fill="#f17a7e" fill-opacity="1"><g transform="translate(168.534316, 221.94307)"><g><path d="M 13.28125 0.363281 C 18.375 1.394531 23.894531 -1.335938 26.019531 -6.003906 C 26.382812 -6.851562 26.683594 -7.761719 26.804688 -8.671875 C 27.59375 -13.160156 26.988281 -17.34375 24.136719 -21.046875 C 21.710938 -24.199219 18.742188 -26.929688 16.191406 -29.960938 C 13.644531 -32.992188 12.007812 -36.328125 12.859375 -40.453125 C 13.039062 -41.363281 13.160156 -42.332031 13.28125 -43.242188 C 13.585938 -45.667969 15.101562 -47.183594 17.222656 -47.972656 C 19.347656 -48.761719 20.558594 -47.183594 21.832031 -45.972656 C 22.015625 -45.789062 22.136719 -45.546875 22.257812 -45.425781 C 23.53125 -44.03125 24.503906 -43.667969 25.472656 -44.394531 C 26.320312 -45 26.199219 -46.273438 25.109375 -47.730469 C 23.773438 -49.429688 21.953125 -50.460938 20.015625 -51.308594 C 17.285156 -52.460938 14.859375 -51.976562 12.613281 -50.09375 C 9.277344 -47.367188 8.550781 -43.605469 8.308594 -39.664062 C 8.125 -36.996094 8.914062 -34.570312 10.371094 -32.386719 C 12.128906 -29.777344 14.011719 -27.292969 16.191406 -25.046875 C 17.890625 -23.351562 19.648438 -21.652344 20.921875 -19.589844 C 22.5 -17.222656 23.894531 -14.675781 24.136719 -11.886719 C 24.503906 -7.339844 22.257812 -4.0625 17.101562 -2.851562 C 12.859375 -1.878906 8.734375 -4.125 7.339844 -8.066406 C 6.851562 -9.460938 6.609375 -10.976562 6.066406 -12.3125 C 5.699219 -13.222656 5.277344 -14.496094 4.0625 -14.253906 C 2.730469 -13.949219 3.09375 -12.613281 3.03125 -11.765625 C 3.273438 -5.578125 6.308594 -1.03125 13.28125 0.363281 Z M 13.28125 0.363281 "/></g></g></g><g fill="#f17a7e" fill-opacity="1"><g transform="translate(198.675042, 221.94307)"><g><path d="M 15.648438 0.546875 C 17.285156 1.03125 19.164062 1.214844 20.621094 0.242188 C 22.683594 -1.152344 24.503906 -2.910156 25.289062 -5.457031 L 26.019531 -8.1875 C 27.472656 -13.28125 28.6875 -18.4375 28.566406 -24.625 C 28.746094 -26.320312 28.324219 -28.808594 28.140625 -31.292969 C 27.898438 -36.570312 27.292969 -41.726562 24.320312 -46.273438 C 23.835938 -47.125 23.289062 -47.789062 22.5 -48.335938 C 19.042969 -50.460938 15.101562 -50.09375 11.828125 -47.488281 C 9.402344 -45.546875 7.945312 -43 6.730469 -40.269531 C 4.546875 -35.296875 2.910156 -30.261719 3.03125 -24.746094 C 3.03125 -21.832031 3.519531 -18.984375 3.882812 -16.132812 C 4.367188 -12.859375 5.214844 -9.703125 6.671875 -6.730469 C 8.492188 -2.972656 11.582031 -0.484375 15.648438 0.546875 Z M 19.347656 -3.941406 C 17.710938 -2.0625 14.617188 -2.304688 12.492188 -4.488281 C 10.308594 -6.671875 8.671875 -9.21875 7.703125 -12.191406 C 6.308594 -16.800781 5.882812 -21.410156 6.308594 -26.261719 C 6.730469 -30.507812 7.582031 -34.449219 9.582031 -38.148438 C 10.976562 -40.753906 12.734375 -43.121094 14.796875 -45.304688 C 16.679688 -47.183594 19.648438 -47.003906 21.347656 -45 C 23.167969 -42.878906 24.199219 -40.511719 24.625 -37.785156 C 25.230469 -33.964844 25.777344 -30.082031 25.59375 -26.867188 C 25.59375 -20.742188 24.867188 -15.464844 23.289062 -10.25 C 22.5625 -7.761719 20.984375 -5.820312 19.347656 -3.941406 Z M 19.347656 -3.941406 "/></g></g></g><g fill="#f17a7e" fill-opacity="1"><g transform="translate(230.331899, 221.94307)"><g><path d="M 7.277344 0.96875 C 9.21875 0.546875 11.160156 0.605469 13.101562 0.605469 C 14.738281 0.546875 16.375 0.363281 18.011719 0.242188 C 18.863281 0.183594 19.226562 -0.304688 19.042969 -1.214844 C 18.800781 -2.183594 18.253906 -2.730469 17.285156 -2.789062 C 16.617188 -2.851562 15.890625 -2.789062 15.222656 -2.730469 C 13.160156 -2.425781 13.222656 -2.425781 12.796875 -4.425781 C 11.828125 -8.734375 12.007812 -13.101562 12.070312 -18.558594 C 12.25 -22.925781 11.828125 -28.324219 12.128906 -33.78125 C 12.3125 -37.480469 12.191406 -41.121094 12.3125 -44.820312 C 12.3125 -46.457031 12.675781 -46.699219 14.253906 -46.578125 C 14.796875 -46.578125 15.34375 -46.457031 15.890625 -46.515625 C 16.558594 -46.515625 17.464844 -46.273438 17.527344 -47.304688 C 17.589844 -48.15625 17.464844 -49.066406 16.496094 -49.488281 C 16.191406 -49.609375 15.890625 -49.671875 15.585938 -49.730469 C 12.433594 -49.972656 9.21875 -50.277344 6.066406 -50.460938 C 5.519531 -50.519531 4.972656 -50.277344 4.488281 -50.09375 C 3.761719 -49.792969 2.910156 -49.550781 3.03125 -48.519531 C 3.152344 -47.609375 3.941406 -47.304688 4.730469 -47.125 C 5.578125 -47.003906 6.429688 -46.941406 7.277344 -46.820312 C 8.855469 -46.636719 9.097656 -46.394531 9.277344 -44.757812 L 9.277344 -43.605469 C 9.339844 -30.992188 8.613281 -18.375 9.402344 -5.699219 C 9.460938 -4.792969 9.703125 -3.820312 9.097656 -2.972656 C 8.613281 -2.242188 7.640625 -2.609375 6.914062 -2.425781 C 6.792969 -2.367188 6.609375 -2.367188 6.488281 -2.242188 C 5.640625 -1.820312 4.792969 -1.273438 5.035156 -0.121094 C 5.335938 1.03125 6.308594 1.152344 7.277344 0.96875 Z M 7.277344 0.96875 "/></g></g></g><g clip-path="url(#e54edaa356)"><g clip-path="url(#0e87e507be)"><path fill="#f17a7e" d="M 15.675781 185.925781 L 94.753906 185.925781 L 94.753906 223.945312 L 15.675781 223.945312 Z M 15.675781 185.925781 " fill-opacity="1" fill-rule="nonzero"/></g></g><g clip-path="url(#b3a687285a)"><g clip-path="url(#214858befa)"><path fill="#f17a7e" d="M 15.675781 183.269531 L 94.753906 183.269531 L 94.753906 188.210938 L 15.675781 188.210938 Z M 15.675781 183.269531 " fill-opacity="1" fill-rule="nonzero"/></g></g><g clip-path="url(#ff97c850fb)"><path fill="#ffc94b" d="M 85.917969 162.613281 C 82.460938 159.15625 76.855469 159.15625 73.402344 162.613281 L 52.390625 183.625 L 77.429688 183.625 L 85.917969 175.132812 C 89.371094 171.675781 89.371094 166.070312 85.917969 162.613281 Z M 85.917969 162.613281 " fill-opacity="1" fill-rule="nonzero"/></g><g fill="#f17a7e" fill-opacity="1"><g transform="translate(267.234707, 221.94307)"><g><path d="M 13.402344 0.0625 C 16.253906 0.304688 18.863281 -0.121094 21.289062 -1.457031 C 24.625 -3.394531 27.535156 -5.699219 27.65625 -10.066406 C 27.714844 -10.429688 27.835938 -10.796875 27.898438 -11.21875 C 28.019531 -14.617188 27.59375 -17.769531 25.53125 -20.742188 C 23.894531 -23.226562 21.894531 -25.167969 19.226562 -26.625 C 19.46875 -27.535156 20.074219 -27.898438 20.558594 -28.203125 C 22.683594 -29.597656 23.59375 -31.71875 24.136719 -34.023438 C 24.503906 -35.902344 24.625 -37.785156 24.503906 -39.664062 C 24.257812 -43.058594 22.863281 -46.09375 20.257812 -48.214844 C 16.191406 -51.671875 11.339844 -51.914062 6.308594 -50.761719 C 6.1875 -50.761719 6.066406 -50.640625 5.882812 -50.640625 C 4.671875 -50.21875 4.183594 -49.429688 4.183594 -48.15625 C 4.0625 -43.847656 3.941406 -39.601562 3.335938 -35.296875 C 3.152344 -33.964844 3.273438 -32.507812 3.273438 -31.113281 C 3.335938 -28.808594 3.640625 -26.441406 3.394531 -24.136719 C 2.789062 -17.953125 3.214844 -11.828125 3.03125 -5.640625 C 3.03125 -4.792969 3.214844 -3.941406 3.335938 -3.09375 C 3.519531 -1.515625 4.488281 -0.847656 5.945312 -0.605469 C 8.429688 -0.121094 10.917969 -0.183594 13.402344 0.0625 Z M 8.550781 -26.140625 C 6.914062 -25.714844 6.671875 -25.957031 6.671875 -27.714844 C 6.609375 -28.140625 6.671875 -28.625 6.671875 -29.597656 C 7.398438 -33.964844 7.097656 -38.875 7.277344 -43.789062 C 7.460938 -47.367188 7.761719 -47.609375 11.28125 -47.546875 C 14.496094 -47.425781 17.285156 -46.578125 19.527344 -44.273438 C 20.742188 -43.058594 21.710938 -41.664062 21.832031 -40.027344 C 22.015625 -36.207031 20.5 -32.933594 17.953125 -30.082031 C 17.464844 -29.535156 16.738281 -29.109375 16.070312 -28.746094 C 13.644531 -27.65625 11.097656 -26.867188 8.550781 -26.140625 Z M 11.886719 -3.152344 C 10.429688 -3.214844 8.976562 -3.09375 7.519531 -3.457031 C 6.671875 -3.699219 6.367188 -4.0625 6.429688 -4.914062 C 6.550781 -7.035156 6.308594 -9.15625 6.1875 -11.21875 C 5.945312 -14.738281 6.851562 -18.195312 6.609375 -21.710938 C 6.609375 -22.257812 6.792969 -22.621094 7.398438 -22.742188 C 9.945312 -23.226562 12.492188 -24.078125 15.164062 -23.894531 C 19.527344 -23.59375 22.320312 -21.046875 23.957031 -17.527344 C 25.410156 -14.433594 25.898438 -10.917969 23.472656 -7.945312 C 21.289062 -5.214844 18.316406 -3.519531 14.738281 -3.152344 C 13.765625 -3.03125 12.859375 -3.152344 11.886719 -3.152344 Z M 11.886719 -3.152344 "/></g></g></g><g fill="#f17a7e" fill-opacity="1"><g transform="translate(298.163809, 221.94307)"><g><path d="M 15.648438 0.546875 C 17.285156 1.03125 19.164062 1.214844 20.621094 0.242188 C 22.683594 -1.152344 24.503906 -2.910156 25.289062 -5.457031 L 26.019531 -8.1875 C 27.472656 -13.28125 28.6875 -18.4375 28.566406 -24.625 C 28.746094 -26.320312 28.324219 -28.808594 28.140625 -31.292969 C 27.898438 -36.570312 27.292969 -41.726562 24.320312 -46.273438 C 23.835938 -47.125 23.289062 -47.789062 22.5 -48.335938 C 19.042969 -50.460938 15.101562 -50.09375 11.828125 -47.488281 C 9.402344 -45.546875 7.945312 -43 6.730469 -40.269531 C 4.546875 -35.296875 2.910156 -30.261719 3.03125 -24.746094 C 3.03125 -21.832031 3.519531 -18.984375 3.882812 -16.132812 C 4.367188 -12.859375 5.214844 -9.703125 6.671875 -6.730469 C 8.492188 -2.972656 11.582031 -0.484375 15.648438 0.546875 Z M 19.347656 -3.941406 C 17.710938 -2.0625 14.617188 -2.304688 12.492188 -4.488281 C 10.308594 -6.671875 8.671875 -9.21875 7.703125 -12.191406 C 6.308594 -16.800781 5.882812 -21.410156 6.308594 -26.261719 C 6.730469 -30.507812 7.582031 -34.449219 9.582031 -38.148438 C 10.976562 -40.753906 12.734375 -43.121094 14.796875 -45.304688 C 16.679688 -47.183594 19.648438 -47.003906 21.347656 -45 C 23.167969 -42.878906 24.199219 -40.511719 24.625 -37.785156 C 25.230469 -33.964844 25.777344 -30.082031 25.59375 -26.867188 C 25.59375 -20.742188 24.867188 -15.464844 23.289062 -10.25 C 22.5625 -7.761719 20.984375 -5.820312 19.347656 -3.941406 Z M 19.347656 -3.941406 "/></g></g></g><g fill="#f17a7e" fill-opacity="1"><g transform="translate(329.820666, 221.94307)"><g><path d="M 3.941406 0.96875 C 4.730469 1.214844 5.214844 0.605469 5.457031 0 C 5.820312 -0.789062 6.125 -1.515625 6.308594 -2.304688 C 7.882812 -8.613281 10.554688 -14.496094 12.917969 -20.4375 C 13.464844 -21.710938 13.949219 -23.046875 14.617188 -24.804688 C 16.679688 -20.621094 18.4375 -16.921875 20.257812 -13.222656 C 20.679688 -12.433594 20.921875 -11.582031 21.105469 -10.675781 C 21.773438 -7.398438 23.410156 -4.546875 24.925781 -1.636719 C 25.046875 -1.335938 25.230469 -1.089844 25.410156 -0.847656 C 26.261719 0.0625 26.929688 -0.121094 27.414062 -1.214844 C 27.835938 -2.121094 27.59375 -2.910156 27.171875 -3.761719 C 25.351562 -7.035156 23.894531 -10.492188 22.925781 -14.132812 C 22.742188 -14.617188 22.5 -15.101562 22.257812 -15.527344 C 20.136719 -19.285156 18.617188 -23.226562 16.738281 -27.109375 C 16.375 -27.898438 16.3125 -28.625 16.679688 -29.476562 C 18.132812 -32.386719 19.40625 -35.417969 20.984375 -38.328125 C 22.441406 -41.179688 24.199219 -43.910156 25.777344 -46.699219 C 26.140625 -47.367188 26.441406 -48.09375 26.5625 -48.820312 C 26.746094 -49.308594 26.441406 -49.851562 25.898438 -50.09375 C 25.410156 -50.277344 24.988281 -50.09375 24.683594 -49.671875 C 24.257812 -49.125 23.894531 -48.578125 23.53125 -48.035156 C 20.800781 -43.242188 17.832031 -38.511719 15.40625 -33.539062 C 15.164062 -33.113281 15.039062 -32.507812 14.191406 -32.566406 C 13.039062 -34.386719 11.949219 -36.449219 11.644531 -38.632812 C 11.097656 -42.394531 8.792969 -45.363281 7.460938 -48.761719 C 7.15625 -49.671875 6.429688 -50.398438 5.398438 -50.703125 C 4.792969 -50.882812 4.246094 -50.824219 3.761719 -50.339844 C 3.394531 -49.851562 3.394531 -49.367188 3.640625 -48.820312 L 4.0625 -48.035156 C 6.066406 -44.636719 7.398438 -40.878906 8.855469 -37.175781 C 9.460938 -35.660156 10.066406 -34.144531 11.039062 -32.8125 C 12.675781 -30.324219 13.523438 -27.777344 11.707031 -24.925781 C 10.613281 -23.046875 10.007812 -20.921875 9.339844 -18.863281 C 8.792969 -17.285156 8.066406 -15.828125 7.460938 -14.3125 C 5.945312 -10.1875 4.003906 -6.1875 3.214844 -1.757812 C 3.152344 -1.394531 3.03125 -1.03125 3.03125 -0.667969 C 3.09375 0 3.152344 0.726562 3.941406 0.96875 Z M 3.941406 0.96875 "/></g></g></g></svg>