<svg xmlns="http://www.w3.org/2000/svg" xmlns:xlink="http://www.w3.org/1999/xlink" width="500" zoomAndPan="magnify" viewBox="0 0 375 374.999991" height="500" preserveAspectRatio="xMidYMid meet" version="1.0"><defs><g/><clipPath id="5cf8aa0b3c"><path d="M 15.675781 185.925781 L 94.753906 185.925781 L 94.753906 223.945312 L 15.675781 223.945312 Z M 15.675781 185.925781 " clip-rule="nonzero"/></clipPath><clipPath id="5cdd12fe56"><path d="M 42.050781 221.660156 C 46.105469 223.039062 50.710938 223.945312 55.238281 223.945312 C 59.761719 223.945312 64.113281 223.167969 68.125 221.789062 C 68.210938 221.746094 68.296875 221.746094 68.378906 221.703125 C 83.445312 216.1875 94.542969 201.625 94.753906 185.925781 L 15.675781 185.925781 C 15.890625 201.710938 26.8125 216.277344 42.050781 221.660156 Z M 42.050781 221.660156 " clip-rule="nonzero"/></clipPath><clipPath id="b3c70cbb7c"><path d="M 15.675781 183.269531 L 94.753906 183.269531 L 94.753906 188.183594 L 15.675781 188.183594 Z M 15.675781 183.269531 " clip-rule="nonzero"/></clipPath><clipPath id="e087e6ef66"><path d="M 18.132812 183.269531 L 92.296875 183.269531 C 92.949219 183.269531 93.574219 183.527344 94.035156 183.988281 C 94.496094 184.449219 94.753906 185.074219 94.753906 185.726562 C 94.753906 186.378906 94.496094 187.003906 94.035156 187.464844 C 93.574219 187.925781 92.949219 188.183594 92.296875 188.183594 L 18.132812 188.183594 C 17.480469 188.183594 16.855469 187.925781 16.394531 187.464844 C 15.933594 187.003906 15.675781 186.378906 15.675781 185.726562 C 15.675781 185.074219 15.933594 184.449219 16.394531 183.988281 C 16.855469 183.527344 17.480469 183.269531 18.132812 183.269531 Z M 18.132812 183.269531 " clip-rule="nonzero"/></clipPath><clipPath id="f10a4543d0"><path d="M 52 160 L 89 160 L 89 181.164062 L 52 181.164062 Z M 52 160 " clip-rule="nonzero"/></clipPath></defs><path stroke-linecap="butt" transform="matrix(0.993423, 0, 0, 0.993423, 105.709385, 160.35081)" fill="none" stroke-linejoin="miter" d="M 25.764767 61.506869 C 26.673085 62.061297 28.20661 61.447887 28.627346 60.539569 C 29.11886 59.434645 28.50545 58.707204 27.715095 58.093795 C 27.46344 57.916849 27.1646 57.661262 26.924741 57.661262 C 25.332235 57.60228 24.718825 56.442307 23.869489 55.412093 C 22.469657 53.520747 21.726487 51.373813 21.24677 49.120713 C 20.444618 45.695842 20.263741 42.160873 18.54934 38.928676 C 18.250499 38.374248 18.250499 37.587825 18.073554 36.915434 C 17.641022 35.318996 17.998844 34.159023 19.221731 32.936136 C 23.377975 28.791689 25.151358 23.963054 23.067338 18.104205 C 22.469657 16.5117 21.663573 15.229831 20.322723 14.081654 C 18.922891 12.917748 17.267471 12.426234 15.686762 11.93472 C 13.185938 11.144365 10.6222 10.711833 7.999481 10.904507 C 5.372829 11.085384 4.031979 12.799785 4.212856 15.229831 C 4.570678 20.789839 5.062192 26.345914 4.822334 31.905922 C 4.570678 37.524911 5.180156 43.069191 5.372829 48.629199 C 5.435743 51.373813 5.793565 54.071243 5.612688 56.811926 C 5.494725 57.916849 5.612688 59.006045 5.986239 60.107036 C 6.104202 60.657532 6.403043 61.149046 7.071502 61.149046 C 7.684912 61.149046 8.058463 60.716514 8.353371 60.225 C 8.726922 59.615522 8.608958 58.884149 8.66794 58.152776 C 8.966781 53.937551 8.176426 49.734122 8.117444 45.455983 C 8.117444 44.292078 8.235408 43.069191 8.117444 41.909217 C 7.999481 40.879004 8.353371 40.328508 9.277418 39.895976 C 10.500305 39.34548 11.723192 38.869694 12.946079 38.256284 C 14.762715 37.39122 14.762715 37.39122 15.376125 39.223584 C 16.477116 42.282768 17.208489 45.397002 17.817967 48.570217 C 18.313413 51.314832 19.355423 53.878569 20.381705 56.379393 C 21.427647 58.825168 23.676815 60.166018 25.764767 61.506869 Z M 8.176426 36.482902 C 7.386071 35.991387 7.684912 34.949377 7.743894 34.100041 L 7.743894 31.536303 C 7.62593 28.300174 8.608958 25.126959 8.353371 21.89083 C 8.235408 20.117447 8.058463 18.285083 7.999481 16.5117 C 7.999481 14.498458 8.235408 14.258599 10.189668 14.380494 C 11.66421 14.498458 13.123024 14.750113 14.58577 15.048954 C 15.686762 15.229831 16.599012 15.839308 17.326453 16.763355 C 17.758985 17.313851 18.250499 17.805365 18.742014 18.344064 C 21.726487 21.89083 21.860179 25.496578 18.804927 28.972566 C 16.418135 31.595285 13.677452 33.8012 10.740164 35.81051 C 10.008791 36.364938 9.084744 37.092379 8.176426 36.482902 Z M 35.33553 61.506869 C 36.200595 62.238242 36.99095 61.56585 37.722323 61.329924 C 38.449764 61.090065 38.646369 60.480587 38.823315 59.867177 C 39.196865 58.451617 39.672651 56.992803 39.865325 55.530057 C 40.404024 51.373813 41.269089 47.34733 42.429062 43.324778 C 42.967762 41.177844 43.219417 40.879004 45.409604 40.76104 C 47.678433 40.627349 50.002312 40.68633 52.25148 40.68633 C 54.323704 40.68633 54.579291 40.879004 54.8742 42.892246 C 55.247751 45.216124 55.487609 47.528207 55.86116 49.852086 C 56.411656 53.147196 57.021133 56.379393 57.634543 59.615522 C 57.752507 60.225 58.051347 60.838409 58.78272 60.897391 C 59.706767 60.897391 59.942693 60.225 60.123571 59.497559 C 60.198281 59.198718 60.198281 58.884149 60.198281 58.451617 C 59.942693 56.501289 59.584871 54.488047 59.392198 52.474805 C 58.975394 46.678871 57.87047 41.000899 56.710497 35.318996 C 56.336946 33.368668 56.038105 31.414408 55.739265 29.523062 C 54.996095 24.454568 54.457396 19.386074 53.100817 14.439476 C 52.805908 13.468244 52.566049 12.426234 52.133517 11.517916 C 51.284181 9.744533 49.510798 9.488946 48.110965 10.904507 C 47.124005 11.816757 46.396564 12.97673 46.023013 14.258599 C 45.29164 17.003214 44.501286 19.759625 43.769913 22.441326 C 42.727903 26.644755 42.059444 30.922894 40.596698 35.024088 C 39.196865 38.928676 38.03296 43.010209 37.659409 47.111403 C 37.301587 51.314832 36.558417 55.353112 35.217567 59.316682 C 34.977708 60.048055 34.604157 60.838409 35.33553 61.506869 Z M 45.547228 37.450201 C 44.442304 37.524911 44.068753 37.092379 44.324341 36.050369 C 45.051782 32.38564 45.29164 28.599015 46.632491 25.005064 C 47.615519 22.441326 48.169947 19.759625 48.779425 17.062195 C 48.960302 16.271841 49.078265 15.540468 49.569779 14.691131 C 50.537079 15.422504 50.537079 16.330822 50.733685 17.121177 C 52.074535 23.113717 52.491339 29.283203 53.533349 35.260014 C 53.773208 36.72276 53.415386 37.092379 51.881862 37.155293 C 49.746724 37.273256 47.678433 37.332238 45.547228 37.450201 Z M 76.61092 62.371933 C 81.738396 63.402147 87.298404 60.657532 89.429609 55.946861 C 89.803159 55.097524 90.098068 54.189206 90.219963 53.26516 C 91.022115 48.751094 90.412637 44.547665 87.53433 40.820022 C 85.092488 37.646807 82.111946 34.886464 79.548209 31.84694 C 76.984471 28.791689 75.329052 25.437596 76.178388 21.281353 C 76.371062 20.369103 76.492957 19.386074 76.61092 18.477756 C 76.921557 16.031982 78.443285 14.498458 80.57449 13.708103 C 82.721424 12.917748 83.944311 14.498458 85.22618 15.721345 C 85.403125 15.914018 85.525021 16.153877 85.642984 16.271841 C 86.924853 17.671673 87.907881 18.045224 88.875181 17.313851 C 89.740246 16.704373 89.606554 15.422504 88.521291 13.947962 C 87.176508 12.249289 85.344143 11.203347 83.393815 10.354011 C 80.633472 9.194037 78.203426 9.685552 75.938529 11.576898 C 72.584437 14.321513 71.856996 18.104205 71.601408 22.071707 C 71.424463 24.753408 72.214818 27.199183 73.673632 29.405098 C 75.447015 32.027818 77.342293 34.528641 79.548209 36.781742 C 81.246882 38.496143 83.020265 40.210545 84.302133 42.282768 C 85.894639 44.665629 87.298404 47.229366 87.53433 50.032963 C 87.907881 54.60601 85.642984 57.916849 80.456527 59.124008 C 76.178388 60.107036 72.033941 57.842139 70.634109 53.878569 C 70.142595 52.474805 69.887007 50.957009 69.35224 49.612227 C 68.978689 48.68818 68.546157 47.406311 67.32327 47.64617 C 65.982419 47.960739 66.35597 49.30159 66.296988 50.150926 C 66.532915 56.379393 69.592099 60.956373 76.61092 62.371933 Z M 109.333965 62.552811 C 110.973656 63.044325 112.868934 63.22127 114.343477 62.238242 C 116.4157 60.838409 118.248065 59.065026 119.03842 56.501289 L 119.769793 53.756674 C 121.228607 48.629199 122.451494 43.442742 122.33353 37.214275 C 122.526204 35.499873 122.093671 32.995117 121.916726 30.490361 C 121.661139 25.185941 121.051661 19.999484 118.055391 15.422504 C 117.579606 14.55744 117.025178 13.88898 116.234823 13.334552 C 112.747039 11.203347 108.783469 11.576898 105.488358 14.199617 C 103.046516 16.153877 101.58377 18.717615 100.364815 21.458298 C 98.1589 26.46781 96.519208 31.536303 96.637172 37.092379 C 96.637172 40.013939 97.128686 42.892246 97.486508 45.754824 C 97.978022 49.061731 98.827359 52.238878 100.301901 55.21942 C 102.122469 59.006045 105.236703 61.506869 109.333965 62.552811 Z M 113.061608 58.034813 C 111.406188 59.930091 108.291955 59.674504 106.16075 57.484317 C 103.954834 55.278402 102.315143 52.714664 101.332115 49.734122 C 99.932283 45.082433 99.49975 40.446471 99.932283 35.558855 C 100.364815 31.296445 101.214151 27.317146 103.223461 23.605231 C 104.627225 20.966784 106.400608 18.59572 108.472832 16.389804 C 110.364178 14.498458 113.360448 14.691131 115.07485 16.704373 C 116.907214 18.835578 117.937428 21.222371 118.366028 23.963054 C 118.979438 27.80866 119.529934 31.713248 119.352989 34.949377 C 119.352989 41.118863 118.605887 46.439012 117.025178 51.68445 C 116.297737 54.189206 114.701299 56.143466 113.061608 58.034813 Z M 132.781154 62.985343 C 134.731483 62.552811 136.685743 62.611792 138.640003 62.611792 C 140.279694 62.552811 141.931181 62.371933 143.586601 62.238242 C 144.435937 62.17926 144.79376 61.703474 144.616815 60.779428 C 144.376956 59.808196 143.82646 59.2577 142.843432 59.198718 C 142.17104 59.124008 141.439667 59.198718 140.771208 59.2577 C 138.698985 59.556541 138.757966 59.556541 138.325434 57.543299 C 137.358134 53.206178 137.535079 48.810076 137.594061 43.324778 C 137.774938 38.928676 137.358134 33.486631 137.653042 28.001334 C 137.83392 24.277623 137.715956 20.608961 137.83392 16.881318 C 137.83392 15.229831 138.20747 14.989972 139.799976 15.107935 C 140.338676 15.107935 140.889171 15.229831 141.439667 15.170849 C 142.112059 15.170849 143.036105 15.422504 143.095087 14.380494 C 143.154069 13.531158 143.036105 12.607111 142.053077 12.186375 C 141.754236 12.052684 141.439667 11.993702 141.140827 11.93472 C 137.967612 11.694861 134.731483 11.384224 131.558267 11.203347 C 131.007772 11.144365 130.457276 11.384224 129.961829 11.576898 C 129.234389 11.875738 128.385052 12.127394 128.503016 13.157607 C 128.620979 14.081654 129.411334 14.380494 130.201688 14.55744 C 131.066753 14.691131 131.91609 14.750113 132.781154 14.872009 C 134.361864 15.048954 134.597791 15.304541 134.794396 16.944232 L 134.794396 18.104205 C 134.853378 30.80493 134.122005 43.501723 134.91236 56.26143 C 134.971341 57.169748 135.2112 58.152776 134.597791 59.006045 C 134.122005 59.733486 133.138977 59.375663 132.407604 59.556541 C 132.28964 59.615522 132.096967 59.615522 131.975071 59.733486 C 131.125735 60.166018 130.276399 60.716514 130.516257 61.880419 C 130.815098 63.044325 131.798126 63.162288 132.781154 62.985343 Z M 132.781154 62.985343 " stroke="#f17a7e" stroke-width="1.907878" stroke-opacity="1" stroke-miterlimit="4"/><g fill="#f17a7e" fill-opacity="1"><g transform="translate(106.85803, 221.943013)"><g><path d="M 24.441406 -0.484375 C 25.351562 0.0625 26.867188 -0.546875 27.292969 -1.457031 C 27.777344 -2.546875 27.171875 -3.273438 26.382812 -3.882812 C 26.140625 -4.0625 25.835938 -4.304688 25.59375 -4.304688 C 24.015625 -4.367188 23.410156 -5.519531 22.5625 -6.550781 C 21.167969 -8.429688 20.4375 -10.554688 19.953125 -12.796875 C 19.164062 -16.191406 18.984375 -19.710938 17.285156 -22.925781 C 16.980469 -23.472656 16.980469 -24.257812 16.800781 -24.925781 C 16.375 -26.503906 16.738281 -27.65625 17.953125 -28.867188 C 22.074219 -32.992188 23.835938 -37.785156 21.773438 -43.605469 C 21.167969 -45.183594 20.378906 -46.457031 19.042969 -47.609375 C 17.648438 -48.761719 16.011719 -49.246094 14.433594 -49.730469 C 11.949219 -50.519531 9.402344 -50.945312 6.792969 -50.761719 C 4.183594 -50.582031 2.851562 -48.882812 3.03125 -46.457031 C 3.394531 -40.9375 3.882812 -35.417969 3.640625 -29.898438 C 3.394531 -24.320312 4.003906 -18.800781 4.183594 -13.28125 C 4.246094 -10.554688 4.609375 -7.882812 4.425781 -5.15625 C 4.304688 -4.0625 4.425781 -2.972656 4.792969 -1.878906 C 4.914062 -1.335938 5.214844 -0.847656 5.882812 -0.847656 C 6.488281 -0.847656 6.851562 -1.273438 7.15625 -1.757812 C 7.519531 -2.367188 7.398438 -3.09375 7.460938 -3.820312 C 7.761719 -8.003906 6.972656 -12.191406 6.914062 -16.4375 C 6.914062 -17.589844 7.035156 -18.800781 6.914062 -19.953125 C 6.792969 -20.984375 7.15625 -21.53125 8.066406 -21.953125 C 9.277344 -22.5 10.492188 -22.984375 11.707031 -23.59375 C 13.523438 -24.441406 13.523438 -24.441406 14.132812 -22.621094 C 15.222656 -19.589844 15.949219 -16.496094 16.558594 -13.34375 C 17.042969 -10.613281 18.074219 -8.066406 19.105469 -5.578125 C 20.136719 -3.152344 22.378906 -1.820312 24.441406 -0.484375 Z M 6.972656 -25.351562 C 6.1875 -25.835938 6.488281 -26.867188 6.550781 -27.714844 L 6.550781 -30.261719 C 6.429688 -33.476562 7.398438 -36.632812 7.15625 -39.847656 C 7.035156 -41.605469 6.851562 -43.425781 6.792969 -45.183594 C 6.792969 -47.183594 7.035156 -47.425781 8.976562 -47.304688 C 10.429688 -47.183594 11.886719 -46.941406 13.34375 -46.636719 C 14.433594 -46.457031 15.34375 -45.851562 16.070312 -44.941406 C 16.496094 -44.394531 16.980469 -43.910156 17.464844 -43.363281 C 20.4375 -39.847656 20.558594 -36.269531 17.527344 -32.8125 C 15.164062 -30.203125 12.433594 -28.019531 9.523438 -26.019531 C 8.792969 -25.472656 7.882812 -24.746094 6.972656 -25.351562 Z M 6.972656 -25.351562 "/></g></g></g><g fill="#f17a7e" fill-opacity="1"><g transform="translate(137.362619, 221.943013)"><g><path d="M 3.457031 -0.484375 C 4.304688 0.242188 5.09375 -0.425781 5.820312 -0.667969 C 6.550781 -0.910156 6.730469 -1.515625 6.914062 -2.121094 C 7.277344 -3.519531 7.761719 -4.972656 7.945312 -6.429688 C 8.492188 -10.554688 9.339844 -14.554688 10.492188 -18.558594 C 11.039062 -20.679688 11.28125 -20.984375 13.464844 -21.105469 C 15.707031 -21.226562 18.011719 -21.167969 20.257812 -21.167969 C 22.320312 -21.167969 22.5625 -20.984375 22.863281 -18.984375 C 23.226562 -16.679688 23.472656 -14.375 23.835938 -12.070312 C 24.378906 -8.792969 24.988281 -5.578125 25.59375 -2.367188 C 25.714844 -1.757812 26.019531 -1.152344 26.746094 -1.089844 C 27.65625 -1.089844 27.898438 -1.757812 28.082031 -2.488281 C 28.140625 -2.789062 28.140625 -3.09375 28.140625 -3.519531 C 27.898438 -5.457031 27.535156 -7.460938 27.351562 -9.460938 C 26.929688 -15.222656 25.835938 -20.863281 24.683594 -26.503906 C 24.320312 -28.445312 24.015625 -30.386719 23.714844 -32.265625 C 22.984375 -37.296875 22.441406 -42.332031 21.105469 -47.246094 C 20.800781 -48.214844 20.558594 -49.246094 20.136719 -50.15625 C 19.285156 -51.914062 17.527344 -52.15625 16.132812 -50.761719 C 15.164062 -49.851562 14.433594 -48.699219 14.070312 -47.425781 C 13.34375 -44.699219 12.554688 -41.96875 11.828125 -39.300781 C 10.796875 -35.117188 10.128906 -30.871094 8.671875 -26.804688 C 7.277344 -22.925781 6.125 -18.863281 5.761719 -14.796875 C 5.398438 -10.613281 4.671875 -6.609375 3.335938 -2.667969 C 3.09375 -1.941406 2.730469 -1.152344 3.457031 -0.484375 Z M 13.585938 -24.378906 C 12.492188 -24.320312 12.128906 -24.746094 12.371094 -25.777344 C 13.101562 -29.414062 13.34375 -33.175781 14.675781 -36.753906 C 15.648438 -39.300781 16.191406 -41.96875 16.800781 -44.636719 C 16.980469 -45.425781 17.101562 -46.152344 17.589844 -47.003906 C 18.558594 -46.273438 18.558594 -45.363281 18.742188 -44.578125 C 20.074219 -38.632812 20.5 -32.507812 21.53125 -26.5625 C 21.773438 -25.109375 21.410156 -24.746094 19.894531 -24.683594 C 17.769531 -24.5625 15.707031 -24.503906 13.585938 -24.378906 Z M 13.585938 -24.378906 "/></g></g></g><g fill="#f17a7e" fill-opacity="1"><g transform="translate(168.534316, 221.943013)"><g><path d="M 13.28125 0.363281 C 18.375 1.394531 23.894531 -1.335938 26.019531 -6.003906 C 26.382812 -6.851562 26.683594 -7.761719 26.804688 -8.671875 C 27.59375 -13.160156 26.988281 -17.34375 24.136719 -21.046875 C 21.710938 -24.199219 18.742188 -26.929688 16.191406 -29.960938 C 13.644531 -32.992188 12.007812 -36.328125 12.859375 -40.453125 C 13.039062 -41.363281 13.160156 -42.332031 13.28125 -43.242188 C 13.585938 -45.667969 15.101562 -47.183594 17.222656 -47.972656 C 19.347656 -48.761719 20.558594 -47.183594 21.832031 -45.972656 C 22.015625 -45.789062 22.136719 -45.546875 22.257812 -45.425781 C 23.53125 -44.03125 24.503906 -43.667969 25.472656 -44.394531 C 26.320312 -45 26.199219 -46.273438 25.109375 -47.730469 C 23.773438 -49.429688 21.953125 -50.460938 20.015625 -51.308594 C 17.285156 -52.460938 14.859375 -51.976562 12.613281 -50.09375 C 9.277344 -47.367188 8.550781 -43.605469 8.308594 -39.664062 C 8.125 -36.996094 8.914062 -34.570312 10.371094 -32.386719 C 12.128906 -29.777344 14.011719 -27.292969 16.191406 -25.046875 C 17.890625 -23.351562 19.648438 -21.652344 20.921875 -19.589844 C 22.5 -17.222656 23.894531 -14.675781 24.136719 -11.886719 C 24.503906 -7.339844 22.257812 -4.0625 17.101562 -2.851562 C 12.859375 -1.878906 8.734375 -4.125 7.339844 -8.066406 C 6.851562 -9.460938 6.609375 -10.976562 6.066406 -12.3125 C 5.699219 -13.222656 5.277344 -14.496094 4.0625 -14.253906 C 2.730469 -13.949219 3.09375 -12.613281 3.03125 -11.765625 C 3.273438 -5.578125 6.308594 -1.03125 13.28125 0.363281 Z M 13.28125 0.363281 "/></g></g></g><g fill="#f17a7e" fill-opacity="1"><g transform="translate(198.675042, 221.943013)"><g><path d="M 15.648438 0.546875 C 17.285156 1.03125 19.164062 1.214844 20.621094 0.242188 C 22.683594 -1.152344 24.503906 -2.910156 25.289062 -5.457031 L 26.019531 -8.1875 C 27.472656 -13.28125 28.6875 -18.4375 28.566406 -24.625 C 28.746094 -26.320312 28.324219 -28.808594 28.140625 -31.292969 C 27.898438 -36.570312 27.292969 -41.726562 24.320312 -46.273438 C 23.835938 -47.125 23.289062 -47.789062 22.5 -48.335938 C 19.042969 -50.460938 15.101562 -50.09375 11.828125 -47.488281 C 9.402344 -45.546875 7.945312 -43 6.730469 -40.269531 C 4.546875 -35.296875 2.910156 -30.261719 3.03125 -24.746094 C 3.03125 -21.832031 3.519531 -18.984375 3.882812 -16.132812 C 4.367188 -12.859375 5.214844 -9.703125 6.671875 -6.730469 C 8.492188 -2.972656 11.582031 -0.484375 15.648438 0.546875 Z M 19.347656 -3.941406 C 17.710938 -2.0625 14.617188 -2.304688 12.492188 -4.488281 C 10.308594 -6.671875 8.671875 -9.21875 7.703125 -12.191406 C 6.308594 -16.800781 5.882812 -21.410156 6.308594 -26.261719 C 6.730469 -30.507812 7.582031 -34.449219 9.582031 -38.148438 C 10.976562 -40.753906 12.734375 -43.121094 14.796875 -45.304688 C 16.679688 -47.183594 19.648438 -47.003906 21.347656 -45 C 23.167969 -42.878906 24.199219 -40.511719 24.625 -37.785156 C 25.230469 -33.964844 25.777344 -30.082031 25.59375 -26.867188 C 25.59375 -20.742188 24.867188 -15.464844 23.289062 -10.25 C 22.5625 -7.761719 20.984375 -5.820312 19.347656 -3.941406 Z M 19.347656 -3.941406 "/></g></g></g><g fill="#f17a7e" fill-opacity="1"><g transform="translate(230.331899, 221.943013)"><g><path d="M 7.277344 0.96875 C 9.21875 0.546875 11.160156 0.605469 13.101562 0.605469 C 14.738281 0.546875 16.375 0.363281 18.011719 0.242188 C 18.863281 0.183594 19.226562 -0.304688 19.042969 -1.214844 C 18.800781 -2.183594 18.253906 -2.730469 17.285156 -2.789062 C 16.617188 -2.851562 15.890625 -2.789062 15.222656 -2.730469 C 13.160156 -2.425781 13.222656 -2.425781 12.796875 -4.425781 C 11.828125 -8.734375 12.007812 -13.101562 12.070312 -18.558594 C 12.25 -22.925781 11.828125 -28.324219 12.128906 -33.78125 C 12.3125 -37.480469 12.191406 -41.121094 12.3125 -44.820312 C 12.3125 -46.457031 12.675781 -46.699219 14.253906 -46.578125 C 14.796875 -46.578125 15.34375 -46.457031 15.890625 -46.515625 C 16.558594 -46.515625 17.464844 -46.273438 17.527344 -47.304688 C 17.589844 -48.15625 17.464844 -49.066406 16.496094 -49.488281 C 16.191406 -49.609375 15.890625 -49.671875 15.585938 -49.730469 C 12.433594 -49.972656 9.21875 -50.277344 6.066406 -50.460938 C 5.519531 -50.519531 4.972656 -50.277344 4.488281 -50.09375 C 3.761719 -49.792969 2.910156 -49.550781 3.03125 -48.519531 C 3.152344 -47.609375 3.941406 -47.304688 4.730469 -47.125 C 5.578125 -47.003906 6.429688 -46.941406 7.277344 -46.820312 C 8.855469 -46.636719 9.097656 -46.394531 9.277344 -44.757812 L 9.277344 -43.605469 C 9.339844 -30.992188 8.613281 -18.375 9.402344 -5.699219 C 9.460938 -4.792969 9.703125 -3.820312 9.097656 -2.972656 C 8.613281 -2.242188 7.640625 -2.609375 6.914062 -2.425781 C 6.792969 -2.367188 6.609375 -2.367188 6.488281 -2.242188 C 5.640625 -1.820312 4.792969 -1.273438 5.035156 -0.121094 C 5.335938 1.03125 6.308594 1.152344 7.277344 0.96875 Z M 7.277344 0.96875 "/></g></g></g><g clip-path="url(#5cf8aa0b3c)"><g clip-path="url(#5cdd12fe56)"><path fill="#f17a7e" d="M 15.675781 185.925781 L 94.753906 185.925781 L 94.753906 223.945312 L 15.675781 223.945312 Z M 15.675781 185.925781 " fill-opacity="1" fill-rule="nonzero"/></g></g><g clip-path="url(#b3c70cbb7c)"><g clip-path="url(#e087e6ef66)"><path fill="#f17a7e" d="M 15.675781 183.269531 L 94.753906 183.269531 L 94.753906 188.183594 L 15.675781 188.183594 Z M 15.675781 183.269531 " fill-opacity="1" fill-rule="nonzero"/></g></g><g clip-path="url(#f10a4543d0)"><path fill="#ffc94b" d="M 85.941406 162.613281 C 82.480469 159.15625 76.875 159.15625 73.421875 162.613281 L 52.402344 183.632812 L 77.445312 183.632812 L 85.941406 175.140625 C 89.394531 171.679688 89.394531 166.074219 85.941406 162.613281 Z M 85.941406 162.613281 " fill-opacity="1" fill-rule="nonzero"/></g><path stroke-linecap="butt" transform="matrix(0.993423, 0, 0, 0.993423, 264.549362, 160.35081)" fill="none" stroke-linejoin="miter" d="M 16.19387 62.061297 C 19.068245 62.297223 21.690964 61.880419 24.136739 60.539569 C 27.490831 58.585309 30.424187 56.26143 30.546083 51.865328 C 30.605065 51.491777 30.723028 51.133955 30.78201 50.701422 C 30.903905 47.288348 30.487101 44.115133 28.399149 41.118863 C 26.759458 38.614107 24.746216 36.663779 22.048787 35.201033 C 22.304374 34.276986 22.913852 33.919164 23.405366 33.604595 C 25.536571 32.204763 26.444889 30.073557 26.999317 27.749679 C 27.368936 25.8544 27.490831 23.963054 27.368936 22.071707 C 27.11728 18.658633 25.717448 15.599449 23.094729 13.468244 C 19.009263 9.98046 14.121647 9.744533 9.053153 10.904507 C 8.93519 10.904507 8.813294 11.026402 8.620621 11.026402 C 7.397734 11.458934 6.921948 12.249289 6.921948 13.531158 C 6.788256 17.868279 6.666361 22.130689 6.056883 26.46781 C 5.876006 27.80866 5.997901 29.283203 5.997901 30.686967 C 6.056883 32.995117 6.371452 35.38191 6.115865 37.705789 C 5.506387 43.934256 5.93892 50.091945 5.758043 56.320412 C 5.758043 57.169748 5.93892 58.034813 6.056883 58.884149 C 6.249557 60.480587 7.220789 61.149046 8.679602 61.388905 C 11.184358 61.880419 13.689114 61.821438 16.19387 62.061297 Z M 11.31805 35.692547 C 9.662631 36.109351 9.426704 35.873424 9.426704 34.100041 C 9.351994 33.667509 9.426704 33.187791 9.426704 32.204763 C 10.154145 27.80866 9.843508 22.85813 10.036181 17.92726 C 10.217059 14.321513 10.511967 14.081654 14.058733 14.140636 C 17.294862 14.258599 20.098459 15.107935 22.363356 17.435746 C 23.586243 18.658633 24.553543 20.058466 24.687234 21.713885 C 24.868112 25.559492 23.330655 28.85067 20.766918 31.713248 C 20.291132 32.263744 19.544031 32.696277 18.875571 33.054099 C 16.445526 34.159023 13.881788 34.949377 11.31805 35.692547 Z M 14.672143 58.825168 C 13.209397 58.766186 11.734854 58.884149 10.27604 58.526327 C 9.426704 58.274672 9.112135 57.916849 9.171117 57.051785 C 9.28908 54.920579 9.053153 52.789374 8.93519 50.701422 C 8.679602 47.170385 9.603649 43.6826 9.351994 40.147631 C 9.351994 39.597135 9.544667 39.223584 10.154145 39.105621 C 12.717883 38.614107 15.28162 37.76477 17.967253 37.941715 C 22.363356 38.256284 25.16302 40.820022 26.81844 44.35106 C 28.281186 47.469225 28.7727 51.015991 26.326926 53.996533 C 24.136739 56.752944 21.140469 58.451617 17.534721 58.825168 C 16.563489 58.943131 15.639442 58.825168 14.672143 58.825168 Z M 49.593238 62.552811 C 51.228997 63.044325 53.124276 63.22127 54.598818 62.238242 C 56.671042 60.838409 58.503406 59.065026 59.293761 56.501289 L 60.025134 53.756674 C 61.483948 48.629199 62.706835 43.442742 62.588872 37.214275 C 62.781545 35.499873 62.349013 32.995117 62.172068 30.490361 C 61.91648 25.185941 61.307003 19.999484 58.310733 15.422504 C 57.834947 14.55744 57.280519 13.88898 56.494096 13.334552 C 53.006312 11.203347 49.03881 11.576898 45.747632 14.199617 C 43.301857 16.153877 41.839111 18.717615 40.620156 21.458298 C 38.414241 26.46781 36.77455 31.536303 36.892513 37.092379 C 36.892513 40.013939 37.384027 42.892246 37.74185 45.754824 C 38.233364 49.061731 39.0827 52.238878 40.557243 55.21942 C 42.377811 59.006045 45.492044 61.506869 49.593238 62.552811 Z M 53.316949 58.034813 C 51.66153 59.930091 48.547296 59.674504 46.416091 57.484317 C 44.210175 55.278402 42.570484 52.714664 41.587456 49.734122 C 40.187624 45.082433 39.755091 40.446471 40.187624 35.558855 C 40.620156 31.296445 41.469493 27.317146 43.478802 23.605231 C 44.882567 20.966784 46.65595 18.59572 48.728173 16.389804 C 50.61952 14.498458 53.61579 14.691131 55.330191 16.704373 C 57.162556 18.835578 58.192769 21.222371 58.625302 23.963054 C 59.234779 27.80866 59.785275 31.713248 59.60833 34.949377 C 59.60833 41.118863 58.861228 46.439012 57.280519 51.68445 C 56.553078 54.189206 54.95664 56.143466 53.316949 58.034813 Z M 69.666675 62.985343 C 70.45703 63.22127 70.948544 62.611792 71.204131 61.998383 C 71.561953 61.21196 71.87259 60.480587 72.053468 59.674504 C 73.634177 53.324141 76.331606 47.406311 78.698739 41.4295 C 79.253166 40.147631 79.744681 38.80678 80.41314 37.033397 C 82.485363 41.236826 84.258746 44.964469 86.095043 48.68818 C 86.523643 49.478535 86.763502 50.3436 86.944379 51.251918 C 87.612839 54.547029 89.268258 57.425335 90.789986 60.346895 C 90.923678 60.657532 91.100623 60.897391 91.2815 61.149046 C 92.142633 62.061297 92.815024 61.880419 93.29081 60.779428 C 93.723342 59.867177 93.487415 59.065026 93.054883 58.21569 C 91.218586 54.920579 89.759772 51.432795 88.776744 47.779862 C 88.595867 47.288348 88.35994 46.796834 88.104353 46.364301 C 85.973148 42.577677 84.439623 38.614107 82.544345 34.709519 C 82.186523 33.919164 82.127541 33.187791 82.485363 32.322726 C 83.959906 29.405098 85.241775 26.345914 86.822484 23.412558 C 88.300958 20.54998 90.058613 17.805365 91.651119 14.989972 C 92.008941 14.321513 92.32351 13.59014 92.441473 12.858767 C 92.622351 12.367253 92.32351 11.816757 91.773014 11.576898 C 91.2815 11.384224 90.864696 11.576898 90.550127 11.993702 C 90.117595 12.544198 89.759772 13.098626 89.386222 13.649121 C 86.645539 18.477756 83.649269 23.231681 81.203494 28.241193 C 80.967568 28.673725 80.845672 29.283203 79.980607 29.208493 C 78.836362 27.391856 77.731439 25.303904 77.41687 23.113717 C 76.882102 19.327093 74.558224 16.330822 73.217373 12.917748 C 72.902804 11.993702 72.171431 11.262329 71.145149 10.96742 C 70.53174 10.770815 69.981244 10.845525 69.48973 11.325243 C 69.116179 11.816757 69.116179 12.308271 69.371766 12.858767 L 69.78857 13.649121 C 71.813609 17.062195 73.154459 20.84882 74.617205 24.572531 C 75.226683 26.109987 75.840092 27.627783 76.807392 28.972566 C 78.462812 31.47339 79.312148 34.037127 77.49158 36.915434 C 76.390588 38.80678 75.777179 40.937986 75.108719 43.010209 C 74.558224 44.606647 73.826851 46.065461 73.217373 47.587189 C 71.679917 51.747364 69.729589 55.769916 68.939234 60.225 C 68.87632 60.598551 68.758357 60.956373 68.758357 61.329924 C 68.817339 61.998383 68.87632 62.729756 69.666675 62.985343 Z M 69.666675 62.985343 " stroke="#f17a7e" stroke-width="1.907878" stroke-opacity="1" stroke-miterlimit="4"/><g fill="#f17a7e" fill-opacity="1"><g transform="translate(267.234707, 221.943013)"><g><path d="M 13.402344 0.0625 C 16.253906 0.304688 18.863281 -0.121094 21.289062 -1.457031 C 24.625 -3.394531 27.535156 -5.699219 27.65625 -10.066406 C 27.714844 -10.429688 27.835938 -10.796875 27.898438 -11.21875 C 28.019531 -14.617188 27.59375 -17.769531 25.53125 -20.742188 C 23.894531 -23.226562 21.894531 -25.167969 19.226562 -26.625 C 19.46875 -27.535156 20.074219 -27.898438 20.558594 -28.203125 C 22.683594 -29.597656 23.59375 -31.71875 24.136719 -34.023438 C 24.503906 -35.902344 24.625 -37.785156 24.503906 -39.664062 C 24.257812 -43.058594 22.863281 -46.09375 20.257812 -48.214844 C 16.191406 -51.671875 11.339844 -51.914062 6.308594 -50.761719 C 6.1875 -50.761719 6.066406 -50.640625 5.882812 -50.640625 C 4.671875 -50.21875 4.183594 -49.429688 4.183594 -48.15625 C 4.0625 -43.847656 3.941406 -39.601562 3.335938 -35.296875 C 3.152344 -33.964844 3.273438 -32.507812 3.273438 -31.113281 C 3.335938 -28.808594 3.640625 -26.441406 3.394531 -24.136719 C 2.789062 -17.953125 3.214844 -11.828125 3.03125 -5.640625 C 3.03125 -4.792969 3.214844 -3.941406 3.335938 -3.09375 C 3.519531 -1.515625 4.488281 -0.847656 5.945312 -0.605469 C 8.429688 -0.121094 10.917969 -0.183594 13.402344 0.0625 Z M 8.550781 -26.140625 C 6.914062 -25.714844 6.671875 -25.957031 6.671875 -27.714844 C 6.609375 -28.140625 6.671875 -28.625 6.671875 -29.597656 C 7.398438 -33.964844 7.097656 -38.875 7.277344 -43.789062 C 7.460938 -47.367188 7.761719 -47.609375 11.28125 -47.546875 C 14.496094 -47.425781 17.285156 -46.578125 19.527344 -44.273438 C 20.742188 -43.058594 21.710938 -41.664062 21.832031 -40.027344 C 22.015625 -36.207031 20.5 -32.933594 17.953125 -30.082031 C 17.464844 -29.535156 16.738281 -29.109375 16.070312 -28.746094 C 13.644531 -27.65625 11.097656 -26.867188 8.550781 -26.140625 Z M 11.886719 -3.152344 C 10.429688 -3.214844 8.976562 -3.09375 7.519531 -3.457031 C 6.671875 -3.699219 6.367188 -4.0625 6.429688 -4.914062 C 6.550781 -7.035156 6.308594 -9.15625 6.1875 -11.21875 C 5.945312 -14.738281 6.851562 -18.195312 6.609375 -21.710938 C 6.609375 -22.257812 6.792969 -22.621094 7.398438 -22.742188 C 9.945312 -23.226562 12.492188 -24.078125 15.164062 -23.894531 C 19.527344 -23.59375 22.320312 -21.046875 23.957031 -17.527344 C 25.410156 -14.433594 25.898438 -10.917969 23.472656 -7.945312 C 21.289062 -5.214844 18.316406 -3.519531 14.738281 -3.152344 C 13.765625 -3.03125 12.859375 -3.152344 11.886719 -3.152344 Z M 11.886719 -3.152344 "/></g></g></g><g fill="#f17a7e" fill-opacity="1"><g transform="translate(298.163809, 221.943013)"><g><path d="M 15.648438 0.546875 C 17.285156 1.03125 19.164062 1.214844 20.621094 0.242188 C 22.683594 -1.152344 24.503906 -2.910156 25.289062 -5.457031 L 26.019531 -8.1875 C 27.472656 -13.28125 28.6875 -18.4375 28.566406 -24.625 C 28.746094 -26.320312 28.324219 -28.808594 28.140625 -31.292969 C 27.898438 -36.570312 27.292969 -41.726562 24.320312 -46.273438 C 23.835938 -47.125 23.289062 -47.789062 22.5 -48.335938 C 19.042969 -50.460938 15.101562 -50.09375 11.828125 -47.488281 C 9.402344 -45.546875 7.945312 -43 6.730469 -40.269531 C 4.546875 -35.296875 2.910156 -30.261719 3.03125 -24.746094 C 3.03125 -21.832031 3.519531 -18.984375 3.882812 -16.132812 C 4.367188 -12.859375 5.214844 -9.703125 6.671875 -6.730469 C 8.492188 -2.972656 11.582031 -0.484375 15.648438 0.546875 Z M 19.347656 -3.941406 C 17.710938 -2.0625 14.617188 -2.304688 12.492188 -4.488281 C 10.308594 -6.671875 8.671875 -9.21875 7.703125 -12.191406 C 6.308594 -16.800781 5.882812 -21.410156 6.308594 -26.261719 C 6.730469 -30.507812 7.582031 -34.449219 9.582031 -38.148438 C 10.976562 -40.753906 12.734375 -43.121094 14.796875 -45.304688 C 16.679688 -47.183594 19.648438 -47.003906 21.347656 -45 C 23.167969 -42.878906 24.199219 -40.511719 24.625 -37.785156 C 25.230469 -33.964844 25.777344 -30.082031 25.59375 -26.867188 C 25.59375 -20.742188 24.867188 -15.464844 23.289062 -10.25 C 22.5625 -7.761719 20.984375 -5.820312 19.347656 -3.941406 Z M 19.347656 -3.941406 "/></g></g></g><g fill="#f17a7e" fill-opacity="1"><g transform="translate(329.820666, 221.943013)"><g><path d="M 3.941406 0.96875 C 4.730469 1.214844 5.214844 0.605469 5.457031 0 C 5.820312 -0.789062 6.125 -1.515625 6.308594 -2.304688 C 7.882812 -8.613281 10.554688 -14.496094 12.917969 -20.4375 C 13.464844 -21.710938 13.949219 -23.046875 14.617188 -24.804688 C 16.679688 -20.621094 18.4375 -16.921875 20.257812 -13.222656 C 20.679688 -12.433594 20.921875 -11.582031 21.105469 -10.675781 C 21.773438 -7.398438 23.410156 -4.546875 24.925781 -1.636719 C 25.046875 -1.335938 25.230469 -1.089844 25.410156 -0.847656 C 26.261719 0.0625 26.929688 -0.121094 27.414062 -1.214844 C 27.835938 -2.121094 27.59375 -2.910156 27.171875 -3.761719 C 25.351562 -7.035156 23.894531 -10.492188 22.925781 -14.132812 C 22.742188 -14.617188 22.5 -15.101562 22.257812 -15.527344 C 20.136719 -19.285156 18.617188 -23.226562 16.738281 -27.109375 C 16.375 -27.898438 16.3125 -28.625 16.679688 -29.476562 C 18.132812 -32.386719 19.40625 -35.417969 20.984375 -38.328125 C 22.441406 -41.179688 24.199219 -43.910156 25.777344 -46.699219 C 26.140625 -47.367188 26.441406 -48.09375 26.5625 -48.820312 C 26.746094 -49.308594 26.441406 -49.851562 25.898438 -50.09375 C 25.410156 -50.277344 24.988281 -50.09375 24.683594 -49.671875 C 24.257812 -49.125 23.894531 -48.578125 23.53125 -48.035156 C 20.800781 -43.242188 17.832031 -38.511719 15.40625 -33.539062 C 15.164062 -33.113281 15.039062 -32.507812 14.191406 -32.566406 C 13.039062 -34.386719 11.949219 -36.449219 11.644531 -38.632812 C 11.097656 -42.394531 8.792969 -45.363281 7.460938 -48.761719 C 7.15625 -49.671875 6.429688 -50.398438 5.398438 -50.703125 C 4.792969 -50.882812 4.246094 -50.824219 3.761719 -50.339844 C 3.394531 -49.851562 3.394531 -49.367188 3.640625 -48.820312 L 4.0625 -48.035156 C 6.066406 -44.636719 7.398438 -40.878906 8.855469 -37.175781 C 9.460938 -35.660156 10.066406 -34.144531 11.039062 -32.8125 C 12.675781 -30.324219 13.523438 -27.777344 11.707031 -24.925781 C 10.613281 -23.046875 10.007812 -20.921875 9.339844 -18.863281 C 8.792969 -17.285156 8.066406 -15.828125 7.460938 -14.3125 C 5.945312 -10.1875 4.003906 -6.1875 3.214844 -1.757812 C 3.152344 -1.394531 3.03125 -1.03125 3.03125 -0.667969 C 3.09375 0 3.152344 0.726562 3.941406 0.96875 Z M 3.941406 0.96875 "/></g></g></g></svg>