<svg xmlns="http://www.w3.org/2000/svg" xmlns:xlink="http://www.w3.org/1999/xlink" width="500" zoomAndPan="magnify" viewBox="0 0 375 374.999991" height="500" preserveAspectRatio="xMidYMid meet" version="1.0"><defs><clipPath id="b929caa179"><path d="M 14.25 123.371094 L 126.75 123.371094 L 126.75 235.871094 L 14.25 235.871094 Z M 14.25 123.371094 " clip-rule="nonzero"/></clipPath><clipPath id="0569b89b69"><path d="M 70.5 123.371094 C 39.433594 123.371094 14.25 148.558594 14.25 179.621094 C 14.25 210.6875 39.433594 235.871094 70.5 235.871094 C 101.566406 235.871094 126.75 210.6875 126.75 179.621094 C 126.75 148.558594 101.566406 123.371094 70.5 123.371094 " clip-rule="nonzero"/></clipPath><clipPath id="ba2f30c29d"><path d="M 131.25 37.5 L 243.75 37.5 L 243.75 150 L 131.25 150 Z M 131.25 37.5 " clip-rule="nonzero"/></clipPath><clipPath id="7e985070d6"><path d="M 187.5 37.5 C 156.433594 37.5 131.25 62.683594 131.25 93.75 C 131.25 124.816406 156.433594 150 187.5 150 C 218.566406 150 243.75 124.816406 243.75 93.75 C 243.75 62.683594 218.566406 37.5 187.5 37.5 " clip-rule="nonzero"/></clipPath><clipPath id="13bd819170"><path d="M 257.742188 127.085938 L 370.242188 127.085938 L 370.242188 239.585938 L 257.742188 239.585938 Z M 257.742188 127.085938 " clip-rule="nonzero"/></clipPath><clipPath id="35a88eb91c"><path d="M 313.992188 127.085938 C 282.925781 127.085938 257.742188 152.269531 257.742188 183.335938 C 257.742188 214.402344 282.925781 239.585938 313.992188 239.585938 C 345.058594 239.585938 370.242188 214.402344 370.242188 183.335938 C 370.242188 152.269531 345.058594 127.085938 313.992188 127.085938 " clip-rule="nonzero"/></clipPath><clipPath id="800494d952"><path d="M 64.628906 187.5 L 310.628906 187.5 L 310.628906 365.25 L 64.628906 365.25 Z M 64.628906 187.5 " clip-rule="nonzero"/></clipPath><clipPath id="a0ac66a482"><path d="M 41 146.390625 L 105 146.390625 L 105 213 L 41 213 Z M 41 146.390625 " clip-rule="nonzero"/></clipPath><clipPath id="455abc15a8"><path d="M 154.871094 58.136719 L 220 58.136719 L 220 123 L 154.871094 123 Z M 154.871094 58.136719 " clip-rule="nonzero"/></clipPath><clipPath id="ad7307dc3b"><path d="M 218.960938 124.648438 L 220.121094 124.648438 L 220.121094 125.839844 L 218.960938 125.839844 Z M 218.960938 124.648438 " clip-rule="nonzero"/></clipPath><clipPath id="3278cb04dc"><path d="M 211.167969 137.625 L 212.75 137.625 L 212.75 139.121094 L 211.167969 139.121094 Z M 211.167969 137.625 " clip-rule="nonzero"/></clipPath><clipPath id="c6ee985177"><path d="M 276.320312 151 L 351 151 L 351 215.4375 L 276.320312 215.4375 Z M 276.320312 151 " clip-rule="nonzero"/></clipPath></defs><g clip-path="url(#b929caa179)"><g clip-path="url(#0569b89b69)"><path stroke-linecap="butt" transform="matrix(0.75, 0, 0, 0.75, 14.250004, 123.372765)" fill="none" stroke-linejoin="miter" d="M 75 -0.00222793 C 33.578122 -0.00222793 -0.00000475233 33.581108 -0.00000475233 74.997777 C -0.00000475233 116.419655 33.578122 149.997782 75 149.997782 C 116.421878 149.997782 150.000005 116.419655 150.000005 74.997777 C 150.000005 33.581108 116.421878 -0.00222793 75 -0.00222793 " stroke="#f9faf4" stroke-width="8" stroke-opacity="1" stroke-miterlimit="4"/></g></g><g clip-path="url(#ba2f30c29d)"><g clip-path="url(#7e985070d6)"><path stroke-linecap="butt" transform="matrix(0.75, 0, 0, 0.75, 131.249996, 37.499998)" fill="none" stroke-linejoin="miter" d="M 75.00001 0.00000328333 C 33.578133 0.00000328333 0.00000549167 33.57813 0.00000549167 75.000008 C 0.00000549167 116.421886 33.578133 150.000013 75.00001 150.000013 C 116.421888 150.000013 150.000015 116.421886 150.000015 75.000008 C 150.000015 33.57813 116.421888 0.00000328333 75.00001 0.00000328333 " stroke="#f9faf4" stroke-width="8" stroke-opacity="1" stroke-miterlimit="4"/></g></g><g clip-path="url(#13bd819170)"><g clip-path="url(#35a88eb91c)"><path stroke-linecap="butt" transform="matrix(0.75, 0, 0, 0.75, 257.74326, 127.086671)" fill="none" stroke-linejoin="miter" d="M 74.998575 -0.000977806 C 33.576698 -0.000977806 -0.00142943 33.577149 -0.00142943 74.999027 C -0.00142943 116.420905 33.576698 149.999032 74.998575 149.999032 C 116.420453 149.999032 149.99858 116.420905 149.99858 74.999027 C 149.99858 33.577149 116.420453 -0.000977806 74.998575 -0.000977806 " stroke="#f9faf4" stroke-width="8" stroke-opacity="1" stroke-miterlimit="4"/></g></g><g clip-path="url(#800494d952)"><path fill="#f9faf4" d="M 214.964844 217.984375 C 214.964844 218.980469 214.914062 219.976562 214.816406 220.96875 C 214.71875 221.960938 214.574219 222.945312 214.378906 223.921875 C 214.183594 224.898438 213.941406 225.863281 213.652344 226.820312 C 213.363281 227.773438 213.03125 228.710938 212.648438 229.628906 C 212.269531 230.550781 211.84375 231.453125 211.375 232.332031 C 210.902344 233.210938 210.390625 234.0625 209.839844 234.890625 C 209.285156 235.722656 208.695312 236.519531 208.0625 237.292969 C 207.429688 238.0625 206.761719 238.800781 206.058594 239.503906 C 205.351562 240.210938 204.617188 240.878906 203.847656 241.511719 C 203.078125 242.144531 202.277344 242.738281 201.449219 243.292969 C 200.621094 243.847656 199.769531 244.359375 198.890625 244.832031 C 198.011719 245.300781 197.113281 245.726562 196.191406 246.109375 C 195.269531 246.492188 194.335938 246.828125 193.382812 247.117188 C 192.429688 247.40625 191.460938 247.652344 190.484375 247.847656 C 189.507812 248.042969 188.523438 248.1875 187.53125 248.289062 C 186.539062 248.386719 185.546875 248.4375 184.550781 248.4375 C 183.554688 248.4375 182.558594 248.390625 181.566406 248.292969 C 180.574219 248.199219 179.589844 248.054688 178.613281 247.859375 C 177.636719 247.667969 176.671875 247.425781 175.714844 247.140625 C 174.761719 246.851562 173.824219 246.515625 172.902344 246.136719 C 171.980469 245.757812 171.082031 245.332031 170.203125 244.863281 C 169.324219 244.394531 168.46875 243.886719 167.640625 243.332031 C 166.808594 242.78125 166.007812 242.1875 165.238281 241.558594 C 164.464844 240.925781 163.726562 240.261719 163.023438 239.558594 C 162.316406 238.851562 161.644531 238.117188 161.011719 237.347656 C 160.378906 236.578125 159.785156 235.78125 159.230469 234.953125 C 158.675781 234.125 158.160156 233.273438 157.6875 232.394531 C 157.21875 231.515625 156.789062 230.617188 156.40625 229.699219 C 156.023438 228.777344 155.6875 227.839844 155.394531 226.886719 C 155.105469 225.933594 154.859375 224.96875 154.664062 223.992188 C 154.464844 223.015625 154.316406 222.03125 154.21875 221.039062 C 154.117188 220.050781 154.066406 219.054688 154.066406 218.058594 C 154.0625 217.0625 154.109375 216.066406 154.203125 215.074219 C 154.300781 214.082031 154.441406 213.097656 154.632812 212.121094 C 154.828125 211.140625 155.066406 210.175781 155.351562 209.222656 C 155.640625 208.265625 155.972656 207.328125 156.351562 206.40625 C 156.730469 205.484375 157.152344 204.585938 157.621094 203.703125 C 158.085938 202.824219 158.597656 201.96875 159.148438 201.140625 C 159.699219 200.308594 160.289062 199.507812 160.921875 198.734375 C 161.550781 197.964844 162.214844 197.222656 162.917969 196.515625 C 163.621094 195.808594 164.355469 195.140625 165.125 194.503906 C 165.894531 193.871094 166.691406 193.273438 167.519531 192.71875 C 168.34375 192.164062 169.195312 191.648438 170.074219 191.175781 C 170.953125 190.703125 171.847656 190.273438 172.769531 189.890625 C 173.6875 189.503906 174.625 189.167969 175.578125 188.875 C 176.53125 188.582031 177.496094 188.335938 178.472656 188.140625 C 179.449219 187.941406 180.429688 187.792969 181.421875 187.691406 C 182.414062 187.589844 183.40625 187.539062 184.40625 187.535156 C 185.402344 187.53125 186.402344 187.574219 187.394531 187.671875 C 188.390625 187.765625 189.378906 187.90625 190.359375 188.101562 C 191.339844 188.292969 192.308594 188.53125 193.269531 188.820312 C 194.226562 189.105469 195.167969 189.441406 196.089844 189.820312 C 197.015625 190.199219 197.917969 190.625 198.800781 191.09375 C 199.683594 191.5625 200.542969 192.074219 201.375 192.628906 C 202.207031 193.179688 203.007812 193.773438 203.78125 194.40625 C 204.558594 195.039062 205.296875 195.707031 206.007812 196.414062 C 206.714844 197.121094 207.386719 197.859375 208.019531 198.628906 C 208.65625 199.402344 209.253906 200.203125 209.808594 201.03125 C 210.363281 201.863281 210.878906 202.71875 211.351562 203.601562 C 211.824219 204.480469 212.25 205.382812 212.636719 206.308594 C 213.019531 207.230469 213.355469 208.167969 213.644531 209.125 C 213.9375 210.082031 214.179688 211.050781 214.375 212.03125 C 214.570312 213.011719 214.71875 214 214.816406 214.992188 C 214.914062 215.988281 214.964844 216.984375 214.964844 217.984375 Z M 187.628906 365.214844 C 176.332031 365.222656 165.082031 364.511719 153.875 363.085938 L 149.171875 286.816406 C 149.171875 286.816406 122.03125 307.429688 118.804688 313.386719 C 115.578125 319.347656 64.628906 270.03125 64.628906 270.03125 L 68.976562 262.433594 L 112.300781 281.84375 C 112.300781 281.84375 132.363281 260.164062 137.226562 253.113281 C 138.703125 251.007812 145.425781 247.644531 154.121094 244.910156 C 155.082031 245.984375 156.097656 247.007812 157.167969 247.972656 C 158.238281 248.941406 159.355469 249.847656 160.523438 250.695312 C 161.6875 251.542969 162.898438 252.324219 164.148438 253.042969 C 165.398438 253.761719 166.683594 254.410156 168 254.992188 C 169.320312 255.574219 170.667969 256.085938 172.039062 256.523438 C 173.414062 256.960938 174.808594 257.328125 176.21875 257.617188 C 177.632812 257.90625 179.054688 258.121094 180.492188 258.257812 C 181.925781 258.398438 183.363281 258.460938 184.808594 258.445312 C 186.25 258.429688 187.683594 258.339844 189.117188 258.171875 C 190.550781 258.003906 191.96875 257.757812 193.375 257.441406 C 194.78125 257.121094 196.167969 256.726562 197.53125 256.261719 C 198.894531 255.792969 200.230469 255.257812 201.539062 254.648438 C 202.84375 254.039062 204.117188 253.363281 205.351562 252.617188 C 206.585938 251.875 207.777344 251.066406 208.925781 250.195312 C 210.074219 249.324219 211.175781 248.394531 212.226562 247.40625 C 213.277344 246.417969 214.269531 245.375 215.210938 244.28125 C 225.40625 246.714844 233.851562 250.105469 235.847656 254.097656 C 240.191406 262.980469 264.164062 289.550781 264.164062 289.550781 L 304.125 260.273438 L 310.628906 270.03125 C 310.628906 270.03125 266.1875 316.09375 260.773438 318.800781 C 255.363281 321.507812 220.675781 284.574219 220.675781 284.574219 L 220.675781 363.167969 C 209.703125 364.535156 198.6875 365.21875 187.628906 365.214844 Z M 187.628906 365.214844 " fill-opacity="1" fill-rule="evenodd"/></g><g clip-path="url(#a0ac66a482)"><path fill="#f9faf4" d="M 43.96875 151.660156 C 44.144531 152.574219 44.996094 153.675781 46.890625 154.003906 C 51.125 154.742188 54.429688 155.328125 56.011719 157.640625 C 60.414062 164.070312 61.367188 170.117188 56.710938 172.988281 C 47.167969 178.871094 35.808594 190.234375 45.019531 204.746094 C 48.730469 210.589844 55.066406 212.683594 62.324219 211.421875 C 70.976562 213.132812 75.925781 212.058594 78.34375 209.082031 C 86.324219 209.03125 90.789062 206.199219 92.84375 201.464844 C 103.289062 197.1875 105.492188 190.003906 104.886719 182.597656 C 103.539062 166.019531 90.769531 164.441406 78.695312 165.019531 C 72.425781 165.320312 68.769531 162.328125 66.183594 158.574219 C 61.035156 151.105469 54.515625 146.433594 46.191406 146.390625 C 45.234375 146.382812 44.496094 147.054688 44.320312 147.914062 C 44.066406 149.140625 43.734375 150.429688 43.96875 151.660156 Z M 64.078125 163.378906 C 65.027344 168.097656 65.894531 172.832031 63.027344 177.207031 C 60.40625 181.207031 58.609375 185.03125 58.117188 188.691406 C 56.699219 199.246094 60.511719 208.3125 70.277344 209.785156 C 63.207031 206.015625 61.746094 199.804688 61.859375 192.910156 C 63.132812 201.328125 66.148438 207.929688 74.601562 208.847656 C 64.675781 204.710938 64.347656 196.675781 65.132812 187.636719 C 65.460938 183.855469 66.207031 179.933594 66.417969 175.917969 C 66.460938 179.722656 66.144531 183.472656 65.949219 187.636719 C 65.644531 194.25 66.144531 202.75 73.082031 206.148438 C 68.519531 201.933594 67.5625 196.863281 67.820312 191.386719 C 68.019531 187.132812 68.390625 182.882812 68.40625 178.613281 C 68.429688 171.605469 66.566406 166.929688 64.078125 163.378906 Z M 62.210938 169.941406 C 59.832031 173.792969 55.886719 176.277344 53.699219 177.855469 C 46.851562 182.789062 42.351562 189.152344 45.488281 200.175781 C 45.566406 196.113281 46.113281 192.519531 47.125 189.394531 C 45.515625 202.453125 50.175781 208.671875 59.167969 209.546875 C 55.0625 206.8125 53.640625 204.078125 52.972656 201.347656 C 53.636719 202.867188 54.53125 204.039062 56.128906 204.628906 C 54.566406 202.714844 54.449219 200.449219 54.140625 198.535156 C 55.542969 202.34375 57.53125 205.464844 60.804688 207.089844 C 54.210938 200.007812 54.933594 194.15625 55.894531 188.339844 C 54.597656 191.003906 54.230469 194.226562 54.492188 197.832031 C 53.515625 194.511719 53.324219 191.191406 53.90625 187.871094 C 52.621094 189.503906 51.605469 193.0625 50.632812 196.894531 C 50.753906 192.746094 50.394531 187.574219 56.363281 182.011719 C 60.878906 177.804688 63.203125 171.238281 62.210938 169.941406 Z M 58.699219 156.464844 C 61.050781 158.144531 62.464844 159.824219 63.496094 161.503906 C 62.722656 158.503906 60.324219 155.464844 56.363281 152.25 C 58.738281 153.421875 60.804688 154.746094 62.558594 156.230469 C 59.628906 152.792969 55.820312 148.496094 47.007812 147.328125 C 45.566406 147.136719 45.398438 148.488281 47.007812 148.851562 C 50.585938 149.65625 53.46875 150.261719 54.957031 152.132812 C 52.425781 151.113281 49.789062 150.015625 46.65625 150.492188 C 45.625 150.648438 44.421875 151.714844 46.816406 151.960938 C 56.296875 152.9375 61.222656 160.746094 62.792969 168.417969 C 63.300781 164.746094 61.9375 160.761719 58.699219 156.464844 Z M 71.472656 167.011719 C 73.121094 169.890625 75.351562 172.515625 83.0625 177.261719 C 91.867188 182.675781 94.007812 189.839844 92.949219 199.125 C 96.722656 189.476562 93.976562 182.695312 87.070312 177.601562 C 92.234375 180.640625 96.613281 184.664062 95.847656 195.710938 C 98.617188 190.179688 98.054688 185.542969 97.382812 180.933594 C 98.703125 184.175781 99.527344 188.417969 99.257812 194.855469 C 102.308594 190.042969 103.753906 184.507812 101.984375 177.941406 C 100.09375 170.941406 93.597656 167.851562 87.75 167.523438 C 83.667969 167.292969 79.539062 167.695312 75.222656 167.011719 C 77.796875 168.332031 80.234375 169.214844 84.511719 170.171875 C 90.363281 171.476562 93.96875 175.433594 95.335938 177.601562 C 92.179688 175.1875 89.664062 172.554688 84.171875 171.367188 C 79.363281 170.328125 74.914062 168.699219 71.472656 167.011719 Z M 64.996094 161.03125 C 67.015625 165.644531 68.984375 170.210938 69.511719 174.613281 C 70.242188 180.695312 70.105469 186.519531 70.277344 192.378906 C 70.5625 201.992188 75.128906 204.800781 80.25 206.640625 C 77.464844 203.15625 75.929688 199.507812 74.964844 195.792969 C 76.71875 199.476562 77.953125 203.375 82.808594 206.042969 C 83.964844 206.679688 84.777344 206.382812 84.683594 205.359375 C 83.75 195.472656 79.394531 187.304688 75.304688 179.054688 C 79.855469 186.65625 84.597656 194.316406 86.046875 203.996094 C 86.199219 205.015625 87.191406 205.121094 87.410156 203.652344 C 88.636719 195.429688 84.453125 188.714844 80.933594 182.042969 C 85.484375 188.359375 89.492188 194.90625 89.710938 203.054688 C 94.046875 194.09375 89.957031 184.113281 82.039062 179.140625 C 78.929688 177.089844 75.679688 175.3125 73.261719 172.988281 C 69.363281 169.246094 67.257812 165.027344 64.996094 161.03125 Z M 64.996094 161.03125 " fill-opacity="1" fill-rule="evenodd"/></g><path fill="#f9faf4" d="M 205.707031 93.269531 L 179.429688 65.324219 C 179.074219 64.945312 178.480469 64.929688 178.101562 65.285156 C 177.726562 65.640625 177.707031 66.234375 178.0625 66.613281 L 204.339844 94.5625 C 204.523438 94.757812 204.773438 94.859375 205.023438 94.859375 C 205.253906 94.859375 205.484375 94.773438 205.667969 94.601562 C 206.042969 94.246094 206.0625 93.648438 205.707031 93.269531 " fill-opacity="1" fill-rule="nonzero"/><path fill="#f9faf4" d="M 163.3125 81.402344 C 162.933594 81.046875 162.339844 81.0625 161.984375 81.441406 C 161.628906 81.820312 161.648438 82.414062 162.023438 82.769531 L 189.90625 109.113281 C 190.085938 109.28125 190.316406 109.367188 190.546875 109.367188 C 190.796875 109.367188 191.046875 109.269531 191.230469 109.074219 C 191.585938 108.695312 191.570312 108.097656 191.191406 107.742188 L 163.3125 81.402344 " fill-opacity="1" fill-rule="nonzero"/><g clip-path="url(#455abc15a8)"><path fill="#f9faf4" d="M 216.367188 96.496094 L 215.292969 95.417969 C 214.925781 95.050781 214.332031 95.050781 213.964844 95.417969 L 213.347656 96.039062 L 212.636719 95.332031 L 213.109375 94.859375 C 213.464844 94.503906 213.476562 93.929688 213.136719 93.558594 L 181.878906 59.488281 C 181.125 58.667969 180.097656 58.203125 178.984375 58.179688 C 177.871094 58.152344 176.828125 58.578125 176.039062 59.367188 L 156.082031 79.375 C 155.296875 80.160156 154.875 81.210938 154.898438 82.324219 C 154.921875 83.441406 155.386719 84.472656 156.207031 85.226562 L 190.191406 116.558594 C 190.371094 116.726562 190.597656 116.808594 190.824219 116.808594 C 191.066406 116.808594 191.304688 116.714844 191.488281 116.53125 L 191.957031 116.0625 L 192.667969 116.769531 L 192.046875 117.390625 C 191.679688 117.757812 191.679688 118.355469 192.046875 118.722656 L 193.121094 119.800781 C 194.910156 121.59375 197.261719 122.492188 199.613281 122.492188 C 201.964844 122.492188 204.3125 121.59375 206.105469 119.800781 L 216.367188 109.511719 C 219.945312 105.921875 219.945312 100.085938 216.367188 96.496094 Z M 157.476562 83.839844 C 157.035156 83.4375 156.789062 82.882812 156.777344 82.285156 C 156.761719 81.6875 156.988281 81.125 157.410156 80.703125 L 177.367188 60.699219 C 177.777344 60.285156 178.320312 60.0625 178.898438 60.0625 C 178.914062 60.0625 178.929688 60.0625 178.945312 60.0625 C 179.542969 60.074219 180.09375 60.324219 180.496094 60.761719 L 211.144531 94.167969 L 190.796875 114.5625 Z M 193.285156 114.730469 L 211.3125 96.660156 L 212.019531 97.371094 L 193.992188 115.441406 Z M 204.777344 118.46875 C 201.929688 121.324219 197.296875 121.324219 194.449219 118.46875 L 194.039062 118.058594 L 194.65625 117.4375 L 214.007812 98.035156 L 214.628906 97.414062 L 215.039062 97.828125 C 217.886719 100.683594 217.886719 105.324219 215.039062 108.179688 L 204.777344 118.46875 " fill-opacity="1" fill-rule="nonzero"/></g><path fill="#f9faf4" d="M 213.089844 105.300781 C 212.703125 105.6875 212.703125 106.3125 213.089844 106.699219 C 213.472656 107.085938 214.097656 107.085938 214.484375 106.699219 C 214.867188 106.3125 214.867188 105.6875 214.484375 105.300781 C 214.097656 104.914062 213.472656 104.914062 213.089844 105.300781 " fill-opacity="1" fill-rule="nonzero"/><path fill="#f9faf4" d="M 210.292969 108.105469 C 209.910156 108.492188 209.910156 109.117188 210.292969 109.5 C 210.679688 109.886719 211.300781 109.886719 211.6875 109.5 C 212.070312 109.117188 212.070312 108.492188 211.6875 108.105469 C 211.300781 107.71875 210.679688 107.71875 210.292969 108.105469 " fill-opacity="1" fill-rule="nonzero"/><path fill="#f9faf4" d="M 207.496094 110.90625 C 207.113281 111.292969 207.113281 111.917969 207.496094 112.304688 C 207.882812 112.691406 208.503906 112.691406 208.890625 112.304688 C 209.277344 111.917969 209.277344 111.292969 208.890625 110.90625 C 208.503906 110.523438 207.882812 110.523438 207.496094 110.90625 " fill-opacity="1" fill-rule="nonzero"/><path fill="#f9faf4" d="M 204.703125 113.710938 C 204.316406 114.097656 204.316406 114.722656 204.703125 115.109375 C 205.085938 115.492188 205.710938 115.492188 206.09375 115.109375 C 206.480469 114.722656 206.480469 114.097656 206.09375 113.710938 C 205.710938 113.324219 205.085938 113.324219 204.703125 113.710938 " fill-opacity="1" fill-rule="nonzero"/><path fill="#f9faf4" d="M 201.90625 116.511719 C 201.519531 116.898438 201.519531 117.523438 201.90625 117.910156 C 202.289062 118.296875 202.914062 118.296875 203.296875 117.910156 C 203.683594 117.523438 203.683594 116.898438 203.296875 116.511719 C 202.914062 116.128906 202.289062 116.128906 201.90625 116.511719 " fill-opacity="1" fill-rule="nonzero"/><path fill="#f9faf4" d="M 211.316406 106.328125 C 211.699219 105.941406 211.699219 105.316406 211.316406 104.929688 C 210.929688 104.542969 210.304688 104.542969 209.921875 104.929688 C 209.535156 105.316406 209.535156 105.941406 209.921875 106.328125 C 210.304688 106.710938 210.929688 106.710938 211.316406 106.328125 " fill-opacity="1" fill-rule="nonzero"/><path fill="#f9faf4" d="M 208.519531 109.128906 C 208.902344 108.742188 208.902344 108.117188 208.519531 107.730469 C 208.132812 107.347656 207.511719 107.347656 207.125 107.730469 C 206.742188 108.117188 206.742188 108.742188 207.125 109.128906 C 207.511719 109.515625 208.132812 109.515625 208.519531 109.128906 " fill-opacity="1" fill-rule="nonzero"/><path fill="#f9faf4" d="M 205.722656 111.933594 C 206.109375 111.546875 206.109375 110.921875 205.722656 110.535156 C 205.335938 110.148438 204.714844 110.148438 204.328125 110.535156 C 203.945312 110.921875 203.945312 111.546875 204.328125 111.933594 C 204.714844 112.316406 205.335938 112.316406 205.722656 111.933594 " fill-opacity="1" fill-rule="nonzero"/><path fill="#f9faf4" d="M 202.925781 114.734375 C 203.3125 114.347656 203.3125 113.722656 202.925781 113.335938 C 202.542969 112.953125 201.917969 112.953125 201.53125 113.335938 C 201.148438 113.722656 201.148438 114.347656 201.53125 114.734375 C 201.917969 115.121094 202.542969 115.121094 202.925781 114.734375 " fill-opacity="1" fill-rule="nonzero"/><g clip-path="url(#ad7307dc3b)"><path fill="#f9faf4" d="M 219.964844 124.828125 C 219.746094 124.605469 219.382812 124.605469 219.160156 124.828125 C 218.941406 125.050781 218.941406 125.410156 219.160156 125.632812 C 219.382812 125.855469 219.746094 125.855469 219.964844 125.632812 C 220.1875 125.410156 220.1875 125.050781 219.964844 124.828125 " fill-opacity="1" fill-rule="nonzero"/></g><path fill="#f9faf4" d="M 213.339844 125.609375 C 213.09375 125.855469 213.09375 126.257812 213.339844 126.503906 C 213.585938 126.753906 213.988281 126.753906 214.234375 126.503906 C 214.480469 126.257812 214.480469 125.855469 214.234375 125.609375 C 213.988281 125.363281 213.585938 125.363281 213.339844 125.609375 " fill-opacity="1" fill-rule="nonzero"/><path fill="#f9faf4" d="M 216.3125 129.601562 C 216.0625 129.855469 216.0625 130.261719 216.3125 130.515625 C 216.5625 130.769531 216.972656 130.769531 217.222656 130.515625 C 217.476562 130.261719 217.476562 129.855469 217.222656 129.601562 C 216.972656 129.351562 216.5625 129.351562 216.3125 129.601562 " fill-opacity="1" fill-rule="nonzero"/><path fill="#f9faf4" d="M 212.015625 132.425781 C 211.6875 132.753906 211.6875 133.292969 212.015625 133.621094 C 212.347656 133.953125 212.882812 133.953125 213.210938 133.621094 C 213.542969 133.292969 213.542969 132.753906 213.210938 132.425781 C 212.882812 132.09375 212.347656 132.09375 212.015625 132.425781 " fill-opacity="1" fill-rule="nonzero"/><g clip-path="url(#3278cb04dc)"><path fill="#f9faf4" d="M 211.472656 137.902344 C 211.195312 138.183594 211.195312 138.632812 211.472656 138.910156 C 211.75 139.1875 212.199219 139.1875 212.476562 138.910156 C 212.753906 138.632812 212.753906 138.183594 212.476562 137.902344 C 212.199219 137.625 211.75 137.625 211.472656 137.902344 " fill-opacity="1" fill-rule="nonzero"/></g><path fill="#f9faf4" d="M 216.085938 117.519531 C 215.710938 117.894531 215.710938 118.503906 216.085938 118.882812 C 216.464844 119.257812 217.074219 119.257812 217.449219 118.882812 C 217.824219 118.503906 217.824219 117.894531 217.449219 117.519531 C 217.074219 117.140625 216.464844 117.140625 216.085938 117.519531 " fill-opacity="1" fill-rule="nonzero"/><path fill="#f9faf4" d="M 211.96875 118.984375 C 211.703125 119.25 211.703125 119.675781 211.96875 119.941406 C 212.230469 120.207031 212.65625 120.207031 212.921875 119.941406 C 213.183594 119.675781 213.183594 119.25 212.921875 118.984375 C 212.65625 118.71875 212.230469 118.71875 211.96875 118.984375 " fill-opacity="1" fill-rule="nonzero"/><path fill="#f9faf4" d="M 208.871094 123.746094 C 208.597656 124.019531 208.597656 124.464844 208.871094 124.738281 C 209.144531 125.011719 209.585938 125.011719 209.859375 124.738281 C 210.132812 124.464844 210.132812 124.019531 209.859375 123.746094 C 209.585938 123.472656 209.144531 123.472656 208.871094 123.746094 " fill-opacity="1" fill-rule="nonzero"/><path fill="#f9faf4" d="M 204.332031 125.363281 C 203.953125 125.746094 203.953125 126.367188 204.332031 126.75 C 204.714844 127.132812 205.335938 127.132812 205.71875 126.75 C 206.101562 126.367188 206.101562 125.746094 205.71875 125.363281 C 205.335938 124.980469 204.714844 124.980469 204.332031 125.363281 " fill-opacity="1" fill-rule="nonzero"/><path fill="#f9faf4" d="M 328.769531 178.863281 C 329.410156 178.921875 329.992188 178.398438 329.992188 177.761719 C 329.992188 177.703125 330.339844 173.289062 332.894531 171.722656 C 333.414062 171.375 333.589844 170.679688 333.300781 170.15625 C 332.949219 169.632812 332.253906 169.457031 331.730469 169.75 C 328.074219 171.957031 327.726562 177.414062 327.667969 177.644531 C 327.609375 178.28125 328.132812 178.804688 328.769531 178.863281 Z M 328.769531 178.863281 " fill-opacity="1" fill-rule="nonzero"/><path fill="#f9faf4" d="M 333.820312 188.675781 C 333.242188 188.386719 332.542969 188.617188 332.253906 189.199219 C 328.714844 196.339844 321.570312 200.632812 321.457031 200.691406 C 320.933594 201.042969 320.703125 201.738281 321.050781 202.261719 C 321.339844 202.78125 322.09375 202.957031 322.617188 202.667969 C 322.90625 202.492188 330.453125 197.964844 334.285156 190.183594 C 334.636719 189.664062 334.402344 188.964844 333.820312 188.675781 Z M 333.820312 188.675781 " fill-opacity="1" fill-rule="nonzero"/><path fill="#f9faf4" d="M 336.375 185.832031 C 336.375 185.984375 336.347656 186.132812 336.289062 186.273438 C 336.230469 186.417969 336.144531 186.542969 336.035156 186.652344 C 335.925781 186.761719 335.800781 186.84375 335.660156 186.902344 C 335.515625 186.960938 335.371094 186.992188 335.214844 186.992188 C 335.0625 186.992188 334.914062 186.960938 334.769531 186.902344 C 334.628906 186.84375 334.503906 186.761719 334.394531 186.652344 C 334.285156 186.542969 334.203125 186.417969 334.144531 186.273438 C 334.082031 186.132812 334.054688 185.984375 334.054688 185.832031 C 334.054688 185.675781 334.082031 185.527344 334.144531 185.386719 C 334.203125 185.242188 334.285156 185.117188 334.394531 185.007812 C 334.503906 184.902344 334.628906 184.816406 334.769531 184.757812 C 334.914062 184.699219 335.0625 184.667969 335.214844 184.667969 C 335.371094 184.667969 335.515625 184.699219 335.660156 184.757812 C 335.800781 184.816406 335.925781 184.902344 336.035156 185.007812 C 336.144531 185.117188 336.230469 185.242188 336.289062 185.386719 C 336.347656 185.527344 336.375 185.675781 336.375 185.832031 Z M 336.375 185.832031 " fill-opacity="1" fill-rule="nonzero"/><g clip-path="url(#c6ee985177)"><path fill="#f9faf4" d="M 349.4375 152.214844 C 347.523438 150.9375 345.027344 151.808594 343.460938 152.972656 C 341.601562 154.363281 340.265625 156.453125 339.6875 158.890625 C 339.570312 159.355469 339.511719 159.878906 339.394531 160.34375 C 338.058594 160.113281 336.667969 160.34375 335.390625 161.039062 C 334.226562 161.679688 333.414062 162.667969 332.894531 163.769531 C 330.164062 163.886719 327.4375 164.8125 325.402344 167.195312 C 323.023438 169.921875 322.152344 173.347656 321.339844 176.714844 C 321.050781 177.875 320.757812 178.980469 320.410156 180.082031 C 318.378906 186.644531 316 191.347656 312.746094 195.234375 C 312.574219 195.410156 300.671875 209.285156 279.191406 205.742188 C 277.738281 205.511719 276.925781 206.207031 276.695312 206.90625 C 276.402344 207.601562 276.636719 208.355469 277.273438 208.703125 C 282.789062 212.1875 289.46875 214.335938 297.828125 215.207031 C 299.164062 215.378906 300.554688 215.4375 301.949219 215.4375 C 315.59375 215.4375 329.410156 208.296875 338.871094 196.164062 C 344.792969 188.558594 347.234375 180.894531 346.015625 173.929688 C 345.664062 172.011719 345.027344 170.269531 344.039062 168.878906 C 344.792969 167.195312 344.738281 165.164062 343.808594 163.421875 C 343.285156 162.492188 342.589844 161.796875 341.71875 161.273438 C 341.777344 160.691406 341.832031 160.054688 342.007812 159.472656 C 342.472656 157.558594 343.515625 155.933594 344.910156 154.886719 C 345.898438 154.132812 347.347656 153.609375 348.21875 154.191406 C 348.511719 154.421875 348.800781 154.828125 348.625 155.234375 C 348.511719 155.523438 348.277344 155.757812 348.160156 155.816406 C 347.640625 155.46875 346.941406 155.582031 346.59375 156.105469 C 346.246094 156.628906 346.363281 157.324219 346.828125 157.730469 C 347.40625 158.136719 348.046875 158.253906 348.683594 158.078125 C 349.902344 157.789062 350.542969 156.570312 350.714844 156.222656 C 351.238281 154.769531 350.773438 153.144531 349.4375 152.214844 Z M 336.957031 194.714844 C 327.085938 207.425781 312.167969 214.453125 298.058594 212.882812 C 291.5 212.1875 286.042969 210.679688 281.398438 208.355469 C 283.023438 208.53125 284.589844 208.589844 286.101562 208.589844 C 303.226562 208.589844 313.152344 198.195312 314.488281 196.628906 C 318.902344 191.347656 321.109375 185.308594 322.617188 180.664062 C 322.964844 179.503906 323.253906 178.339844 323.546875 177.179688 C 324.300781 174.101562 325.113281 170.910156 327.144531 168.644531 C 330.046875 165.335938 334.808594 165.628906 338.292969 166.960938 C 342.066406 168.472656 343.285156 172.128906 343.632812 174.21875 C 345.085938 182.230469 340.789062 189.777344 336.957031 194.714844 Z M 342.183594 166.730469 C 341.3125 165.976562 340.265625 165.335938 339.164062 164.871094 C 338.058594 164.464844 336.839844 164.117188 335.5625 163.945312 C 335.855469 163.59375 336.203125 163.304688 336.609375 163.128906 C 337.1875 162.78125 337.828125 162.667969 338.464844 162.667969 C 339.800781 162.667969 341.078125 163.363281 341.777344 164.582031 C 342.066406 165.21875 342.238281 165.976562 342.183594 166.730469 Z M 342.183594 166.730469 " fill-opacity="1" fill-rule="nonzero"/></g></svg>