<svg xmlns="http://www.w3.org/2000/svg" xmlns:xlink="http://www.w3.org/1999/xlink" width="500" zoomAndPan="magnify" viewBox="0 0 375 374.999991" height="500" preserveAspectRatio="xMidYMid meet" version="1.0"><defs><clipPath id="2f005481bf"><path d="M 68.640625 56.886719 L 306.574219 56.886719 L 306.574219 318.386719 L 68.640625 318.386719 Z M 68.640625 56.886719 " clip-rule="nonzero"/></clipPath><clipPath id="70211dab61"><path d="M 137.824219 211 L 165 211 L 165 243.617188 L 137.824219 243.617188 Z M 137.824219 211 " clip-rule="nonzero"/></clipPath><clipPath id="1c56af9f49"><path d="M 137.824219 190 L 242.761719 190 L 242.761719 232 L 137.824219 232 Z M 137.824219 190 " clip-rule="nonzero"/></clipPath><clipPath id="269cb60582"><path d="M 140 131.382812 L 240 131.382812 L 240 188 L 140 188 Z M 140 131.382812 " clip-rule="nonzero"/></clipPath></defs><g clip-path="url(#2f005481bf)"><path fill="#f9faf4" d="M 187.570312 318.324219 C 150.363281 318.324219 115.839844 302.628906 91.523438 276.242188 L 75.453125 308.257812 L 68.878906 244.164062 L 132.964844 250.75 L 100.207031 267.179688 C 122.214844 291.328125 153.65625 305.761719 187.570312 305.761719 C 222.054688 305.761719 254.179688 290.90625 276.496094 265.414062 L 285.929688 273.667969 C 261.222656 301.882812 225.683594 318.335938 187.570312 318.335938 Z M 283.617188 98.929688 L 299.6875 66.914062 L 306.257812 131.011719 L 242.171875 124.421875 L 274.929688 107.992188 C 252.921875 83.84375 221.484375 69.414062 187.570312 69.414062 C 153.085938 69.414062 120.960938 84.265625 98.640625 109.757812 L 89.210938 101.503906 C 113.914062 73.289062 149.457031 56.835938 187.570312 56.835938 C 224.777344 56.835938 259.296875 72.53125 283.617188 98.917969 Z M 283.617188 98.929688 " fill-opacity="1" fill-rule="nonzero"/></g><g clip-path="url(#70211dab61)"><path fill="#f9faf4" d="M 137.804688 219.464844 L 150.574219 211.835938 L 164.710938 235.5625 L 151.945312 243.191406 Z M 137.804688 219.464844 " fill-opacity="1" fill-rule="nonzero"/></g><g clip-path="url(#1c56af9f49)"><path fill="#f9faf4" d="M 137.824219 191.367188 L 137.824219 194.945312 C 137.824219 195.515625 138.25 195.945312 138.824219 195.945312 L 163.84375 195.945312 L 164.269531 205.109375 C 163.84375 207.253906 154.40625 214.269531 154.40625 214.269531 L 164.84375 231.878906 L 176.996094 224.722656 C 179.140625 223.003906 182.140625 223.433594 182.140625 223.433594 C 198.582031 224.292969 213.878906 196.089844 213.878906 196.089844 L 241.757812 196.089844 C 242.332031 196.089844 242.761719 195.660156 242.761719 195.085938 L 242.761719 191.507812 C 242.761719 190.9375 242.332031 190.507812 241.757812 190.507812 L 138.824219 190.507812 C 138.25 190.363281 137.824219 190.792969 137.824219 191.367188 Z M 171.847656 195.945312 L 205.875 195.945312 C 200.871094 205.679688 181.140625 206.398438 181.140625 206.398438 C 175.136719 205.25 171.847656 195.945312 171.847656 195.945312 Z M 171.847656 195.945312 " fill-opacity="1" fill-rule="nonzero"/></g><g clip-path="url(#269cb60582)"><path fill="#f9faf4" d="M 184.714844 137.679688 L 184.714844 132.8125 C 184.714844 132.242188 185.144531 131.8125 185.714844 131.8125 L 194.867188 131.8125 C 195.4375 131.8125 195.867188 132.242188 195.867188 132.8125 L 195.867188 137.679688 C 220.601562 140.402344 239.902344 161.445312 239.902344 187.070312 L 140.683594 187.070312 C 140.683594 161.445312 159.980469 140.402344 184.714844 137.679688 Z M 184.714844 137.679688 " fill-opacity="1" fill-rule="nonzero"/></g></svg>